<svg version="1.1" xmlns="http://www.w3.org/2000/svg" width="32" height="32" viewBox="0 0 32 32">
<path d="M12.319 23.463l-4.285 4.286c-0.335 0.335-0.878 0.335-1.212 0l-4.285-4.286c-0.539-0.54-0.155-1.463 0.606-1.463h2.57v-17.143c0-0.473 0.384-0.857 0.857-0.857h1.714c0.473 0 0.857 0.384 0.857 0.857v17.143h2.571c0.763 0 1.144 0.925 0.606 1.463zM15.143 7.428h13.714c0.473 0 0.857-0.384 0.857-0.857v-1.714c0-0.473-0.384-0.857-0.857-0.857h-13.714c-0.473 0-0.857 0.384-0.857 0.857v1.714c0 0.473 0.384 0.857 0.857 0.857zM14.286 13.428v-1.714c0-0.473 0.384-0.857 0.857-0.857h10.286c0.473 0 0.857 0.384 0.857 0.857v1.714c0 0.473-0.384 0.857-0.857 0.857h-10.286c-0.473 0-0.857-0.384-0.857-0.857zM14.286 27.143v-1.714c0-0.473 0.384-0.857 0.857-0.857h3.429c0.473 0 0.857 0.384 0.857 0.857v1.714c0 0.473-0.384 0.857-0.857 0.857h-3.429c-0.473 0-0.857-0.384-0.857-0.857zM14.286 20.285v-1.714c0-0.473 0.384-0.857 0.857-0.857h6.857c0.473 0 0.857 0.384 0.857 0.857v1.714c0 0.473-0.384 0.857-0.857 0.857h-6.857c-0.473 0-0.857-0.384-0.857-0.857z"></path>
</svg>