<svg version="1.1" xmlns="http://www.w3.org/2000/svg" width="32" height="32" viewBox="0 0 32 32">
<path d="M6.625 20.688h4.849c0.161 0.455 0.437 0.856 0.791 1.17-1.708 1.186-2.828 3.161-2.828 5.393 0 2.974 1.868 4.618 1.951 4.75h9.224c0.083-0.133 1.951-1.775 1.951-4.75 0-2.232-1.12-4.207-2.828-5.393 0.584-0.516 0.953-1.269 0.953-2.107 0-1.551-1.262-2.813-2.813-2.813h-0.938v-2.036c0.798-0.283 1.431-0.916 1.714-1.714h4.849c2.312 0 4.237-1.683 4.618-3.888 1.127-0.367 1.945-1.427 1.945-2.675v-4.688h-1.875v-1.938h-1.875v1.938h-1.875v4.688c0 1.185 0.737 2.2 1.776 2.614-0.325 1.193-1.418 2.074-2.713 2.074h-4.849c-0.283-0.798-0.916-1.431-1.714-1.714v-2.036h3.75v-1.875h-1.516l1.875-5.688h-10.092l1.875 5.688h-1.516v1.875h3.75v2.036c-0.798 0.283-1.431 0.916-1.714 1.714h-6.724c-2.585 0-4.688 2.103-4.688 4.688s2.103 4.688 4.688 4.688zM26.313 3.813h1.875v2.813c0 0.517-0.421 0.938-0.938 0.938s-0.938-0.421-0.938-0.938zM13.546 1.875h4.908l-1.257 3.813h-2.394zM20.688 27.25c0 1.039-0.338 2.066-0.939 2.875h-7.498c-0.6-0.809-0.939-1.836-0.939-2.875 0-2.585 2.103-4.688 4.688-4.688s4.688 2.103 4.688 4.688zM18.813 19.75c0 0.517-0.421 0.938-0.938 0.938h-3.75c-0.517 0-0.938-0.421-0.938-0.938s0.421-0.938 0.938-0.938h3.75c0.517 0 0.938 0.421 0.938 0.938zM16 11.313c0.517 0 0.938 0.421 0.938 0.938s-0.421 0.938-0.938 0.938-0.938-0.421-0.938-0.938 0.421-0.938 0.938-0.938zM6.625 13.188h6.724c0.283 0.798 0.916 1.431 1.714 1.714v2.036h-0.938c-1.222 0-2.264 0.784-2.651 1.875h-4.849c-1.551 0-2.813-1.262-2.813-2.813s1.262-2.813 2.813-2.813z"></path>
</svg>