<svg version="1.1" xmlns="http://www.w3.org/2000/svg" width="32" height="32" viewBox="0 0 32 32">
<path d="M30.388 15.002l-14.163-14.165c-0.558-0.558-1.289-0.837-2.020-0.837s-1.463 0.279-2.020 0.837l-7.756 7.755c-1.116 1.116-1.116 2.96 0 4.076l1.286 1.321h2.965l-2.768-2.804c-0.194-0.195-0.223-0.438-0.223-0.556s0.029-0.353 0.223-0.547l1.024-0.993 4.867 4.899h4.669l-7.202-7.238 4.397-4.415c0.194-0.194 0.42-0.231 0.538-0.231s0.344 0.024 0.538 0.218l14.164 14.163c0.195 0.195 0.224 0.419 0.224 0.537s-0.050 0.343-0.245 0.538l-0.803 0.784v2.965l2.287-2.266c1.115-1.118 1.135-2.927 0.019-4.043z"></path>
<path d="M23.743 15.317h-20.032c-1.578 0-2.927 1.271-2.927 2.849v7.577h25.781v-7.577c0-1.578-1.244-2.849-2.822-2.849zM7.784 23.163c-0.559 0-1.066-0.223-1.439-0.582-0.373 0.359-0.88 0.582-1.439 0.582-1.148 0-2.079-0.93-2.079-2.080 0-1.148 0.931-2.079 2.079-2.079 0.559 0 1.066 0.222 1.439 0.581 0.373-0.359 0.88-0.581 1.439-0.581 1.148 0 2.079 0.931 2.079 2.079 0 1.15-0.931 2.080-2.079 2.080z"></path>
<path d="M0.784 29.134c0 1.578 1.349 2.866 2.927 2.866h20.032c1.578 0 2.822-1.288 2.822-2.866v-0.168h-25.782v0.168z"></path>
</svg>