<svg version="1.1" xmlns="http://www.w3.org/2000/svg" width="32" height="32" viewBox="0 0 32 32">
<path d="M9.438 12.25c0-1.551 1.262-2.813 2.813-2.813h2.704c-0.070-0.647-0.174-1.273-0.312-1.875h-14.222c-0.138 0.602-0.242 1.228-0.312 1.875h2.704c1.551 0 2.813 1.262 2.813 2.813s-1.262 2.813-2.813 2.813h-2.339c0.097 0.413 0.164 0.84 0.294 1.238 0.068 0.209 0.113 0.426 0.175 0.637h13.185c0.082-0.292 0.149-0.571 0.243-0.873 0.1-0.323 0.146-0.669 0.225-1.002h-2.345c-1.551 0-2.813-1.262-2.813-2.813z"></path>
<path d="M1.419 18.813c0.421 2.033 0.594 4.207 0.485 6.379-0.019 0.38-0.029 0.774-0.029 1.184 0 3.117 2.59 5.625 5.701 5.625 3.175 0 5.611-2.753 5.611-5.892v-3.090c0-1.306 0.167-2.732 0.477-4.205h-12.246z"></path>
<path d="M2.813 11.313h-2.813c0 0.64 0.072 1.257 0.141 1.875h2.672c0.517 0 0.938-0.42 0.938-0.938s-0.42-0.938-0.938-0.938z"></path>
<path d="M7.563 0c-2.829 0-5.303 2.304-6.582 5.688h13.101c-1.279-3.384-3.69-5.688-6.519-5.688z"></path>
<path d="M12.25 11.313c-0.517 0-0.938 0.42-0.938 0.938s0.42 0.938 0.938 0.938h2.679c0.068-0.617 0.134-1.237 0.134-1.875h-2.813z"></path>
<path d="M19.75 11.313h-2.813c0 0.638 0.065 1.258 0.134 1.875h2.679c0.517 0 0.938-0.42 0.938-0.938s-0.42-0.938-0.938-0.938z"></path>
<path d="M26.375 12.25c0-1.551 1.262-2.813 2.813-2.813h2.704c-0.070-0.647-0.174-1.273-0.312-1.875h-14.222c-0.138 0.602-0.242 1.228-0.312 1.875h2.704c1.551 0 2.813 1.262 2.813 2.813s-1.262 2.813-2.813 2.813h-2.345c0.078 0.333 0.125 0.678 0.225 1.002 0.093 0.303 0.161 0.582 0.243 0.873h13.185c0.062-0.211 0.107-0.428 0.175-0.637 0.13-0.398 0.197-0.825 0.294-1.238h-2.339c-1.551 0-2.813-1.262-2.813-2.813z"></path>
<path d="M29.188 11.313c-0.517 0-0.938 0.42-0.938 0.938s0.42 0.938 0.938 0.938h2.672c0.068-0.618 0.141-1.235 0.141-1.875h-2.813z"></path>
<path d="M24.438 0c-2.829 0-5.24 2.304-6.519 5.688h13.101c-1.279-3.384-3.753-5.688-6.582-5.688z"></path>
<path d="M30.581 18.813h-12.246c0.31 1.473 0.477 2.899 0.477 4.205v3.090c0 3.131 2.428 5.892 5.612 5.892 3.153 0 5.7-2.552 5.7-5.625 0-0.409-0.010-0.804-0.029-1.184-0.108-2.171 0.064-4.346 0.485-6.379z"></path>
</svg>