<svg version="1.1" xmlns="http://www.w3.org/2000/svg" width="32" height="32" viewBox="0 0 32 32">
<path d="M27.75 3.116c-0.794-0.731-4.006-3.062-11.167-3.093 0 0-8.442-0.506-12.554 3.268-2.287 2.287-3.093 5.643-3.181 9.798s-0.194 11.942 7.311 14.054h0.006l-0.006 3.224s-0.050 1.306 0.812 1.569c1.037 0.325 1.65-0.669 2.643-1.737 0.544-0.587 1.294-1.45 1.862-2.106 5.137 0.431 9.080-0.556 9.53-0.7 1.037-0.337 6.905-1.087 7.855-8.874 0.987-8.036-0.475-13.11-3.112-15.404zM28.618 17.933c-0.806 6.499-5.562 6.911-6.436 7.193-0.375 0.119-3.843 0.981-8.199 0.7 0 0-3.249 3.918-4.262 4.937-0.331 0.331-0.694 0.3-0.687-0.356 0-0.431 0.025-5.355 0.025-5.355-0.006 0-0.006 0 0 0-6.361-1.762-5.987-8.392-5.918-11.861s0.725-6.311 2.662-8.224c3.481-3.156 10.648-2.687 10.648-2.687 6.055 0.025 8.955 1.85 9.63 2.462 2.231 1.912 3.368 6.486 2.537 13.192zM19.932 12.883c0.025 0.537-0.781 0.575-0.806 0.037-0.069-1.375-0.712-2.043-2.037-2.118-0.537-0.031-0.487-0.837 0.044-0.806 1.743 0.094 2.712 1.094 2.8 2.887zM21.201 13.589c0.063-2.65-1.593-4.724-4.737-4.955-0.531-0.037-0.475-0.844 0.056-0.806 3.624 0.262 5.555 2.756 5.487 5.78-0.006 0.537-0.819 0.512-0.806-0.019zM24.138 14.427c0.006 0.537-0.806 0.544-0.806 0.006-0.038-5.093-3.431-7.867-7.549-7.899-0.531-0.006-0.531-0.806 0-0.806 4.606 0.031 8.311 3.212 8.355 8.699zM23.432 20.557v0.012c-0.675 1.187-1.937 2.5-3.237 2.081l-0.012-0.019c-1.319-0.369-4.424-1.968-6.386-3.531-1.012-0.8-1.937-1.743-2.65-2.65-0.644-0.806-1.294-1.762-1.925-2.912-1.331-2.406-1.625-3.481-1.625-3.481-0.419-1.3 0.887-2.562 2.081-3.237h0.012c0.575-0.3 1.125-0.2 1.493 0.244 0 0 0.775 0.925 1.106 1.381 0.312 0.425 0.731 1.106 0.95 1.487 0.381 0.681 0.144 1.375-0.231 1.662l-0.75 0.6c-0.381 0.306-0.331 0.875-0.331 0.875s1.112 4.206 5.268 5.268c0 0 0.569 0.050 0.875-0.331l0.6-0.75c0.287-0.375 0.981-0.612 1.662-0.231 0.919 0.519 2.087 1.325 2.862 2.056 0.437 0.356 0.537 0.9 0.237 1.475z"></path>
</svg>