<?xml version="1.0" encoding="iso-8859-1"?>
<!-- Generator: Adobe Illustrator 19.0.0, SVG Export Plug-In . SVG Version: 6.00 Build 0)  -->
<svg version="1.1" id="Capa_1" xmlns="http://www.w3.org/2000/svg" xmlns:xlink="http://www.w3.org/1999/xlink" x="0px" y="0px"
	 viewBox="0 0 512.001 512.001" style="enable-background:new 0 0 512.001 512.001;" xml:space="preserve">
<g>
	<g>
		<path d="M152.733,89.501c14.24-9.491,22.737-27.372,22.737-44.484s-8.497-32.992-22.737-42.485
			c-6.93-4.615-16.232-2.739-20.803,4.16c-4.601,6.9-2.725,16.218,4.16,20.803c5.963,3.97,9.376,10.357,9.376,17.522
			s-3.413,15.552-9.376,19.522c-14.24,9.492-22.737,25.373-22.737,42.484s8.497,32.992,22.737,42.485
			c7.019,4.654,16.282,2.631,20.803-4.16c4.601-6.9,2.739-16.203-4.161-20.803c-5.963-3.97-9.376-10.357-9.376-17.522
			C143.357,99.858,146.771,93.471,152.733,89.501z"/>
	</g>
</g>
<g>
	<g>
		<path d="M227.742,89.501c14.24-9.491,22.737-27.372,22.737-44.484s-8.497-32.992-22.737-42.485
			c-6.944-4.615-16.232-2.739-20.803,4.16c-4.601,6.9-2.725,16.218,4.16,20.803c5.963,3.97,9.376,10.357,9.376,17.522
			s-3.413,15.552-9.376,19.522c-14.24,9.492-22.737,25.373-22.737,42.484s8.497,32.992,22.737,42.485
			c7.019,4.654,16.282,2.631,20.803-4.16c4.601-6.9,2.739-16.203-4.16-20.803c-5.963-3.97-9.376-10.357-9.376-17.522
			C218.366,99.858,221.779,93.471,227.742,89.501z"/>
	</g>
</g>
<g>
	<g>
		<path d="M302.75,89.501c14.24-9.493,22.737-27.374,22.737-44.485c0-17.111-8.497-32.992-22.737-42.485
			c-6.944-4.615-16.218-2.739-20.803,4.16c-4.601,6.9-2.725,16.218,4.16,20.803c5.963,3.97,9.376,10.357,9.376,17.522
			c0,7.165-3.413,15.552-9.376,19.522c-14.24,9.493-22.737,25.374-22.737,42.485s8.497,32.992,22.737,42.485
			c7.02,4.654,16.283,2.631,20.803-4.16c4.601-6.9,2.739-16.203-4.16-20.803c-5.963-3.97-9.376-10.357-9.376-17.522
			C293.374,99.858,296.788,93.471,302.75,89.501z"/>
	</g>
</g>
<g>
	<g>
		<path d="M478.127,248.677c-13.64-23.265-38.749-37.709-65.515-37.709h-28.919v-15.002c0-8.292-6.71-15.002-15.002-15.002H68.657
			c-8.292-0.001-15.002,6.709-15.002,15.001v95.153c0,23.953,3.867,48.568,11.515,71.189c8.116,24.103,23.162,44.362,42.275,59.685
			h222.458c10.718-8.592,19.957-18.886,27.612-30.389c54.945-1.978,97.05-26.995,121.755-71.242
			C491.767,297.99,491.342,271.194,478.127,248.677z M453.075,305.738c-17.104,30.611-44.177,49.437-80.394,54.544
			c7.209-22.013,11.011-45.913,11.011-69.165V240.97h28.919c16.408,0,31.234,8.556,39.643,22.899
			C460.137,277.303,460.43,292.554,453.075,305.738z"/>
	</g>
</g>
<g>
	<g>
		<path d="M398.694,451.994H38.653c-8.285,0-15.002,6.717-15.002,15.002c0,24.856,20.149,45.005,45.005,45.005h300.034
			c24.856,0,45.005-20.149,45.005-45.005C413.696,458.711,406.979,451.994,398.694,451.994z"/>
	</g>
</g>
<g>
</g>
<g>
</g>
<g>
</g>
<g>
</g>
<g>
</g>
<g>
</g>
<g>
</g>
<g>
</g>
<g>
</g>
<g>
</g>
<g>
</g>
<g>
</g>
<g>
</g>
<g>
</g>
<g>
</g>
</svg>
