<svg version="1.1" xmlns="http://www.w3.org/2000/svg" width="32" height="32" viewBox="0 0 32 32">
<path d="M15.381 0.306c-0.186-0.196-0.444-0.306-0.714-0.306h-12.226c-0.27 0-0.528 0.111-0.714 0.306s-0.283 0.459-0.27 0.729l0.121 2.36h13.951l0.121-2.36c0.014-0.27-0.084-0.533-0.27-0.729z"></path>
<path d="M1.68 5.279l1.038 20.321h11.673l1.038-20.321z"></path>
<path d="M2.774 27.484l-0.005 1.272c0 1.789 1.455 3.244 3.244 3.244h5.072c1.789 0 3.244-1.455 3.244-3.244l0.005-1.272h-11.56z"></path>
<path d="M17.609 10.514v20.501c0 0.544 0.441 0.985 0.985 0.985h10.965c0.544 0 0.985-0.441 0.985-0.985v-20.501h-12.934zM27.001 27.296c0 0.544-0.316 0.942-0.86 0.942h-4.131c-0.544 0-0.86-0.398-0.86-0.942v-14.048h-0c0-0.544 0.316-0.942 0.86-0.942h4.131c0.544 0 0.86 0.398 0.86 0.942v14.048z"></path>
<path d="M29.559 4.167h-10.965c-0.544 0-0.985 0.441-0.985 0.985v3.479l12.934-0v-3.479c0-0.544-0.441-0.985-0.985-0.985z"></path>
<path d="M22.996 14.19h2.161v12.164h-2.161v-12.164z"></path>
</svg>