<svg version="1.1" xmlns="http://www.w3.org/2000/svg" width="32" height="32" viewBox="0 0 32 32">
<path d="M5.688 20.688v2.813c0 0.518 0.42 0.938 0.938 0.938h2.813v-3.75h-3.75z"></path>
<path d="M29.955 12.708l-13.017-4.92v-0.407c1.616-0.417 2.813-1.887 2.813-3.631 0-2.068-1.682-3.75-3.75-3.75s-3.75 1.682-3.75 3.75c0 0.518 0.419 0.937 0.938 0.937s0.938-0.419 0.938-0.938c0-1.034 0.841-1.875 1.875-1.875s1.875 0.841 1.875 1.875-0.841 1.875-1.875 1.875c-0.518 0-0.938 0.419-0.938 0.938v1.225l-13.017 4.92c-1.223 0.459-2.045 1.645-2.045 2.953 0 1.738 1.415 3.152 3.152 3.152h6.285c0-0.197 0-3.571 0-3.75 0-1.036-0.839-1.875-1.875-1.875s-1.875 0.839-1.875 1.875v1.875h-2.535c-0.704 0-1.277-0.573-1.277-1.277 0-0.53 0.333-1.011 0.829-1.197l12.358-4.611v0.522c0 0.518 0.419 0.938 0.938 0.938s0.938-0.419 0.938-0.938v-0.522l12.358 4.611c0.496 0.186 0.829 0.666 0.829 1.197 0 0.704-0.573 1.277-1.277 1.277h-2.535v-0.938c0-1.553-1.259-2.813-2.813-2.813h-12.709c0.323 0.554 0.521 1.189 0.521 1.875 0 0.236 0 10.946 0 11.313h15v-7.563h2.535c1.738 0 3.152-1.415 3.152-3.152 0-1.307-0.822-2.494-2.045-2.953z"></path>
<path d="M11.313 28.25v2.813c0 0.518 0.42 0.938 0.938 0.938h13.125c0.518 0 0.938-0.42 0.938-0.938v-2.813h-15z"></path>
</svg>