<svg version="1.1" xmlns="http://www.w3.org/2000/svg" width="32" height="32" viewBox="0 0 32 32">
<path d="M23.789 21.196l-0.719-0.206c-0.409-0.104-0.752-0.217-1.084-0.351l0.056 0.020c-0.672-0.246-1.143-0.88-1.143-1.623 0-0.015 0-0.031 0.001-0.046v0.002c3.243-3.426 3.198-6.475 3.129-9.673 0-0.434 0-0.868 0-1.313-0.063-4.389-3.605-7.931-7.988-7.994h-0.006c-4.404 0.044-7.965 3.593-8.028 7.988v0.006c0 0.445 0 0.879 0 1.313-0.069 3.198-0.114 6.224 3.129 9.673 0 0.008 0 0.018 0 0.027 0 0.773-0.502 1.429-1.198 1.659l-0.012 0.004c-0.32 0.126-0.662 0.217-0.982 0.308l-0.719 0.206c-4.088 1.359-8.211 5.082-8.211 9.65 0 0.631 0.511 1.142 1.142 1.142s1.142-0.511 1.142-1.142v0c0-3.426 3.426-6.407 6.646-7.48 0.183-0.069 0.377-0.114 0.594-0.171 0.495-0.107 0.908-0.225 1.31-0.366l-0.077 0.023c1.060-0.402 1.882-1.224 2.275-2.257l0.009-0.027c0.262 0.135 0.575 0.266 0.899 0.374l0.048 0.014-1.142 1.142c-0.205 0.206-0.331 0.49-0.331 0.804 0 0.19 0.046 0.369 0.129 0.527l-0.003-0.006 1.062 1.873-1.142 5.322c-0.014 0.069-0.023 0.148-0.023 0.228 0 0.643 0.521 1.165 1.165 1.165 0.562 0 1.032-0.399 1.141-0.929l0.001-0.008 1.142-5.71c0.003-0.034 0.004-0.074 0.004-0.114s-0.002-0.080-0.005-0.119v0.005c-0.003 0.034-0.004 0.074-0.004 0.114s0.002 0.080 0.005 0.119v-0.005l1.142 5.71c0.11 0.525 0.569 0.914 1.119 0.914 0.008 0 0.016 0 0.024 0h0.227c0.538-0.099 0.94-0.565 0.94-1.124 0-0.087-0.010-0.172-0.028-0.254l0.001 0.008-1.062-5.322 0.959-1.93c0.079-0.151 0.126-0.331 0.126-0.521 0-0.314-0.126-0.598-0.331-0.804l-1.142-1.142c0.372-0.119 0.689-0.254 0.991-0.415l-0.032 0.015c0.405 1.058 1.226 1.879 2.257 2.275l0.027 0.009c0.351 0.147 0.788 0.296 1.236 0.416l0.077 0.018c0.206 0.057 0.411 0.103 0.594 0.171 3.152 1.051 6.578 4.031 6.578 7.457 0 0.631 0.511 1.142 1.142 1.142s1.142-0.511 1.142-1.142v0c0-4.568-4.123-8.291-8.2-9.65zM10.29 9.354c0-0.434 0-0.891 0-1.348 0-3.154 2.556-5.71 5.71-5.71s5.71 2.556 5.71 5.71v0c0 0.457 0 0.914 0 1.348 0 3.061 0.103 5.482-2.821 8.405-0.741 0.746-1.767 1.207-2.901 1.207s-2.16-0.462-2.901-1.207v0c-2.912-2.901-2.866-5.345-2.798-8.405zM16.137 24.622c-0.082 0.149-0.132 0.325-0.137 0.512v0.002c-0.001-0.188-0.047-0.365-0.129-0.52l0.003 0.006-0.765-1.542 0.891-0.902 0.891 0.902z"></path>
</svg>