<svg version="1.1" xmlns="http://www.w3.org/2000/svg" width="32" height="32" viewBox="0 0 32 32">
<path d="M30.342 19.133c0.207-1 0.336-2.065 0.336-3.129 0-8.109-6.565-14.667-14.667-14.667-1.064 0-2.122 0.121-3.129 0.336-1.357-1.050-3.043-1.672-4.879-1.672-4.415 0-8.001 3.586-8.001 8.001 0 1.836 0.622 3.522 1.665 4.872-0.207 1-0.336 2.065-0.336 3.129 0 8.109 6.565 14.667 14.667 14.667 1.064 0 2.122-0.121 3.129-0.336 1.357 1.043 3.043 1.665 4.872 1.665 4.415 0 8.001-3.586 8.001-8.001 0.007-1.829-0.614-3.515-1.657-4.865zM16.439 25.67c-4.687 0-8.609-2.086-8.609-4.644 0-1.143 0.643-2.186 2.108-2.186 2.229 0 2.436 3.208 6.294 3.208 1.836 0 3.022-0.814 3.022-1.879 0-1.336-1.143-1.543-3.001-2-4.465-1.1-8.416-1.572-8.416-6.23 0-4.229 4.186-5.794 7.794-5.794 3.936 0 7.916 1.565 7.916 3.958 0 1.207-0.814 2.272-2.165 2.272-2.022 0-2.086-2.393-5.358-2.393-1.836 0-3.001 0.5-3.001 1.607 0 1.415 1.486 1.557 4.937 2.358 2.958 0.664 6.48 1.915 6.48 5.544 0 4.222-4.079 6.18-8.001 6.18z"></path>
</svg>