<svg version="1.1" xmlns="http://www.w3.org/2000/svg" width="32" height="32" viewBox="0 0 32 32">
<path d="M19.48 20.505c-0.33-0.649-0.996-1.058-1.724-1.058h-5.655v-1.29h4.867c0.802 0 1.452-0.65 1.452-1.452s-0.65-1.452-1.452-1.452h-4.867v-4.374c0-1.604-1.3-2.904-2.904-2.904s-2.903 1.3-2.903 2.904v9.527c0 1.603 1.3 2.904 2.903 2.904 0.202 0 7.371 0.007 7.371 0.007l3.877 7.623c0.341 0.672 1.021 1.059 1.727 1.059 0.296 0 0.596-0.068 0.876-0.211 0.954-0.484 1.333-1.65 0.847-2.603l-4.416-8.681z"></path>
<path d="M9.197 6.593c1.819 0 3.296-1.476 3.296-3.297s-1.477-3.297-3.296-3.297c-1.821 0-3.297 1.475-3.297 3.296s1.476 3.297 3.297 3.297z"></path>
<path d="M13.878 25.144h-7.721c-1.243 0-2.251 1.008-2.251 2.251s1.008 2.251 2.251 2.251h7.721c1.243 0 2.251-1.008 2.251-2.251s-1.008-2.251-2.251-2.251z"></path>
<path d="M21.806 18.415c2.101-0.829 1.617-4.201 1.548-4.828-0.074-0.614-0.875-3.645-0.152-4.619-2.129 0.749-1.626 3.991-1.522 5.034 0.134 1.345 0.905 3.19 0.125 4.413z"></path>
<path d="M26.449 11.712c2.101-0.829 1.617-4.201 1.548-4.827-0.074-0.614-0.876-3.645-0.152-4.619-2.129 0.749-1.626 3.991-1.522 5.034 0.134 1.345 0.905 3.19 0.125 4.413z"></path>
<path d="M27.845 16c-2.129 0.749-1.626 3.991-1.522 5.034 0.134 1.345 0.905 3.19 0.125 4.413 2.101-0.829 1.617-4.201 1.548-4.828-0.074-0.614-0.876-3.645-0.152-4.619z"></path>
</svg>