<svg version="1.1" xmlns="http://www.w3.org/2000/svg" width="32" height="32" viewBox="0 0 32 32">
<path d="M23.469 30.125h-3.17l-0.938-1.875h-6.784l-0.938 1.875h-3.17c-0.518 0-0.938 0.419-0.938 0.938s0.419 0.938 0.938 0.938h15c0.518 0 0.938-0.419 0.938-0.938s-0.419-0.938-0.938-0.938z"></path>
<path d="M0.032 22.625v0.938c0 1.551 1.262 2.812 2.812 2.812h26.312c1.551 0 2.812-1.262 2.812-2.812v-0.938h-31.937z"></path>
<path d="M29.156 3.751h-10.186l1.528-2.292c0.288-0.431 0.171-1.013-0.26-1.3-0.433-0.288-1.014-0.171-1.3 0.26l-2.222 3.332h-1.497l-2.222-3.332c-0.287-0.431-0.869-0.548-1.3-0.26s-0.547 0.869-0.26 1.3l1.528 2.292h-10.123c-1.551 0-2.812 1.262-2.812 2.812v0.938h31.937v-0.938c0-1.551-1.262-2.813-2.812-2.813z"></path>
<path d="M0.032 9.375h31.937v11.375h-31.937v-11.375z"></path>
</svg>