<svg version="1.1" xmlns="http://www.w3.org/2000/svg" width="32" height="32" viewBox="0 0 32 32">
<path d="M29.188 13.188h-22.5c-0.33 0-0.643 0.068-0.938 0.173v-1.11c0-1.551-1.262-2.813-2.813-2.813h-2c-0.518 0-0.938 0.419-0.938 0.938s0.419 0.938 0.938 0.938h2c0.517 0 0.938 0.42 0.938 0.938v4.754c0 0.323 0.163 0.608 0.411 0.776 0.654 0.747 1.532 1.166 2.461 1.166 0.018 0 0.036 0 0.054-0.001 1.039-0.017 2.007-0.549 2.588-1.422 0.496-0.745 1.694-0.745 2.19 0 0.593 0.89 1.586 1.421 2.655 1.421s2.062-0.531 2.655-1.421c0.496-0.745 1.694-0.745 2.19 0 0.593 0.89 1.586 1.421 2.655 1.421s2.062-0.531 2.655-1.421c0.496-0.745 1.694-0.745 2.19 0 0.581 0.872 1.554 1.403 2.6 1.42 1.024 0.036 2.035-0.478 2.645-1.326 0.114-0.159 0.176-0.351 0.176-0.547v-1.072c0-1.551-1.262-2.813-2.812-2.813z"></path>
<path d="M14.188 30.125c0 1.036-0.839 1.875-1.875 1.875s-1.875-0.839-1.875-1.875c0-1.036 0.839-1.875 1.875-1.875s1.875 0.839 1.875 1.875z"></path>
<path d="M25.438 30.125c0 1.036-0.839 1.875-1.875 1.875s-1.875-0.839-1.875-1.875c0-1.036 0.839-1.875 1.875-1.875s1.875 0.839 1.875 1.875z"></path>
<path d="M29.28 20.821c-1.52-0.026-2.86-0.634-3.795-1.661-0.953 1.051-2.308 1.66-3.751 1.66s-2.798-0.609-3.75-1.659c-0.953 1.050-2.307 1.659-3.75 1.659s-2.798-0.609-3.75-1.659c-0.932 1.027-2.25 1.636-3.652 1.66l-0.085 0.001c-0.339 0-0.672-0.038-0.997-0.104v6.595c0 0.518 0.419 0.938 0.938 0.938h2.396c0.65-1.115 1.846-1.875 3.229-1.875s2.578 0.76 3.229 1.875h4.793c0.65-1.115 1.846-1.875 3.229-1.875s2.578 0.76 3.229 1.875h2.396c0.518 0 0.938-0.419 0.938-0.938v-6.595c-0.279 0.049-0.558 0.103-0.845 0.103z"></path>
<path d="M20.428 4.091c0.199-0.385 0.322-0.816 0.322-1.278 0-1.551-1.262-2.813-2.813-2.813s-2.813 1.262-2.813 2.813c0 0.463 0.123 0.893 0.322 1.278-3.571 0.896-6.419 3.692-7.422 7.222h19.826c-1.003-3.53-3.851-6.326-7.422-7.222z"></path>
</svg>