<svg version="1.1" xmlns="http://www.w3.org/2000/svg" width="32" height="32" viewBox="0 0 32 32">
<path d="M0 21.625v2.813c0 0.518 0.419 0.938 0.938 0.938h0.938v2.813c0 0.518 0.419 0.938 0.938 0.938s0.938-0.419 0.938-0.938v-2.813h24.5v2.813c0 0.518 0.419 0.938 0.938 0.938s0.938-0.419 0.938-0.938v-2.813h0.938c0.518 0 0.938-0.419 0.938-0.938v-2.813h-32z"></path>
<path d="M23.563 8.5h-5.688c-0.517 0-0.938 0.42-0.938 0.938v2.813h7.563v-2.813c0-0.517-0.42-0.938-0.938-0.938z"></path>
<path d="M14.125 8.5h-5.688c-0.517 0-0.938 0.42-0.938 0.938v2.813h7.563v-2.813c0-0.517-0.42-0.938-0.938-0.938z"></path>
<path d="M25.438 2.875h-18.875c-2.585 0-4.688 2.103-4.688 4.688v4.688h3.75v-2.813c0-1.551 1.262-2.813 2.813-2.813h5.688c0.723 0 1.376 0.282 1.875 0.732 0.499-0.45 1.152-0.732 1.875-0.732h5.688c1.551 0 2.813 1.262 2.813 2.813v2.813h3.75v-4.688c0-2.585-2.103-4.688-4.688-4.688z"></path>
<path d="M29.188 14.125h-26.375c-1.553 0-2.813 1.259-2.813 2.813v2.813h32v-2.813c0-1.553-1.259-2.813-2.813-2.813z"></path>
</svg>