<svg version="1.1" xmlns="http://www.w3.org/2000/svg" width="32" height="32" viewBox="0 0 32 32">
<path d="M1.524 0v0c-0.842 0-1.524 0.682-1.524 1.524v4.571c0 0.842 0.682 1.524 1.524 1.524h4.571c0.842 0 1.524-0.682 1.524-1.524v-4.571c0-0.842-0.682-1.524-1.524-1.524h-4.571zM25.905 0v0c-0.842 0-1.524 0.682-1.524 1.524v4.571c0 0.842 0.682 1.524 1.524 1.524h4.571c0.842 0 1.524-0.682 1.524-1.524v-4.571c0-0.842-0.682-1.524-1.524-1.524h-4.571zM13.714 0v0c-0.842 0-1.524 0.682-1.524 1.524v4.571c0 0.842 0.682 1.524 1.524 1.524h4.571c0.842 0 1.524-0.682 1.524-1.524v-4.571c0-0.842-0.682-1.524-1.524-1.524h-4.571zM1.524 12.19v0c-0.842 0-1.524 0.682-1.524 1.524v4.571c0 0.842 0.682 1.524 1.524 1.524h4.571c0.842 0 1.524-0.682 1.524-1.524v-4.571c0-0.842-0.682-1.524-1.524-1.524h-4.571zM25.905 12.19v0c-0.842 0-1.524 0.682-1.524 1.524v4.571c0 0.842 0.682 1.524 1.524 1.524h4.571c0.842 0 1.524-0.682 1.524-1.524v-4.571c0-0.842-0.682-1.524-1.524-1.524h-4.571zM13.714 12.19v0c-0.842 0-1.524 0.682-1.524 1.524v4.571c0 0.842 0.682 1.524 1.524 1.524h4.571c0.842 0 1.524-0.682 1.524-1.524v-4.571c0-0.842-0.682-1.524-1.524-1.524h-4.571zM1.524 24.381v0c-0.842 0-1.524 0.682-1.524 1.524v4.571c0 0.842 0.682 1.524 1.524 1.524h4.571c0.842 0 1.524-0.682 1.524-1.524v-4.571c0-0.842-0.682-1.524-1.524-1.524h-4.571zM25.905 24.381v0c-0.842 0-1.524 0.682-1.524 1.524v4.571c0 0.842 0.682 1.524 1.524 1.524h4.571c0.842 0 1.524-0.682 1.524-1.524v-4.571c0-0.842-0.682-1.524-1.524-1.524h-4.571zM13.714 24.381v0c-0.842 0-1.524 0.682-1.524 1.524v4.571c0 0.842 0.682 1.524 1.524 1.524h4.571c0.842 0 1.524-0.682 1.524-1.524v-4.571c0-0.842-0.682-1.524-1.524-1.524h-4.571z"></path>
</svg>