<svg version="1.1" xmlns="http://www.w3.org/2000/svg" width="32" height="32" viewBox="0 0 32 32">
<path d="M28.323 25.13c0.898 0.898 0.898 2.295 0 3.193-0.449 0.449-0.998 0.649-1.597 0.649s-1.148-0.2-1.597-0.649l-9.13-9.13-9.13 9.13c-0.449 0.449-0.998 0.649-1.597 0.649s-1.147-0.2-1.597-0.649c-0.898-0.898-0.898-2.295 0-3.193l9.13-9.13-9.13-9.13c-0.898-0.898-0.898-2.295 0-3.193s2.295-0.898 3.193 0l9.13 9.13 9.13-9.13c0.898-0.898 2.295-0.898 3.193 0s0.898 2.295 0 3.193l-9.13 9.13 9.13 9.13z"></path>
</svg>