<svg version="1.1" xmlns="http://www.w3.org/2000/svg" width="37" height="32" viewBox="0 0 37 32">
<path d="M12.003 3.047c-0.41 0.005-0.76 0.259-0.906 0.617l-0.002 0.007-8.507 21.416h-1.598c-0.547 0-0.99 0.443-0.99 0.99v0 1.846c0 0.547 0.443 0.99 0.99 0.99h12.442c0.547-0 0.99-0.443 0.99-0.99v0-1.846c-0-0.547-0.443-0.99-0.99-0.99h-1.032l1.215-3.404 3.926 6.776c0.175 0.297 0.493 0.493 0.856 0.493 0.37 0 0.692-0.203 0.862-0.503l0.003-0.005 3.737-6.713 1.198 3.356h-1.032c-0.547 0-0.99 0.443-0.99 0.99v0 1.846c0 0.547 0.443 0.99 0.99 0.99h12.344c0.547-0 0.99-0.443 0.99-0.99v0-1.846c-0-0.547-0.443-0.99-0.99-0.99h-1.46l-8.257-21.251c-0.148-0.372-0.505-0.631-0.922-0.631l-0.342-0c-0 0-0 0-0 0-0.383 0-0.714 0.217-0.879 0.534l-0.003 0.006-5.263 10.316-5.494-10.484c-0.169-0.318-0.498-0.53-0.877-0.53-0.004 0-0.008 0-0.013 0h0.001zM24.591 6.426l7.805 20.089c0.052 0.132 0.128 0.245 0.222 0.339v0h-6.203c0.178-0.179 0.289-0.426 0.289-0.698 0-0.119-0.021-0.233-0.060-0.339l0.002 0.007-2.501-7.006c-0.141-0.386-0.505-0.657-0.932-0.657-0.37 0-0.692 0.203-0.862 0.503l-0.003 0.005-3.969 7.13-4.138-7.143c-0.175-0.297-0.492-0.493-0.856-0.493-0.427 0-0.791 0.271-0.93 0.65l-0.002 0.007-2.501 7.004c-0.036 0.099-0.057 0.213-0.057 0.332 0 0.273 0.11 0.52 0.289 0.699l-0-0h-6.169c0.092-0.092 0.166-0.203 0.217-0.326l0.002-0.007 7.915-19.927 5.373 10.252c0.169 0.318 0.498 0.53 0.877 0.53 0.382 0 0.714-0.217 0.879-0.534l0.003-0.006z"></path>
</svg>