<svg version="1.1" xmlns="http://www.w3.org/2000/svg" width="32" height="32" viewBox="0 0 32 32">
<path d="M27.13 8.174h-22.261c-1.252 0-2.261-1.009-2.261-2.261s1.009-2.261 2.261-2.261h22.261c1.252 0 2.261 1.009 2.261 2.261s-1.009 2.261-2.261 2.261zM29.391 16c0-1.252-1.009-2.261-2.261-2.261h-22.261c-1.252 0-2.261 1.009-2.261 2.261s1.009 2.261 2.261 2.261h22.261c1.252 0 2.261-1.009 2.261-2.261zM29.391 26.087c0-1.252-1.009-2.261-2.261-2.261h-22.261c-1.252 0-2.261 1.009-2.261 2.261s1.009 2.261 2.261 2.261h22.261c1.252 0 2.261-1.009 2.261-2.261z"></path>
</svg>