<svg version="1.1" xmlns="http://www.w3.org/2000/svg" width="32" height="32" viewBox="0 0 32 32">
<path d="M24.437 9.376h-14.231c-0.131 0.375-0.338 0.731-0.619 1.012l1.631 3.262c0.225 0.45 0.037 1.012-0.431 1.256-0.552 0.237-1.050-0.019-1.256-0.431l-1.631-3.262c-0.112 0.019-0.225 0.038-0.338 0.038-1.219 0-2.269-0.788-2.644-1.875h-2.981c-0.525 0-0.937 0.412-0.937 0.937v1.875c0 2.587 2.1 4.687 4.687 4.687h14.999c2.587 0 4.687-2.1 4.687-4.687v-1.875c0-0.525-0.412-0.937-0.937-0.937z"></path>
<path d="M18.812 30.125h-2.812v-8.273c1.336-0.642 2.443-1.725 3.099-3.101h-11.822c0.656 1.376 1.762 2.459 3.098 3.101v8.273h-2.812c-0.518 0-0.937 0.419-0.937 0.937s0.419 0.937 0.937 0.937h11.25c0.518 0 0.937-0.419 0.937-0.937s-0.419-0.937-0.937-0.937z"></path>
<path d="M8.294 5.738c0.131-0.319 0.206-0.675 0.206-1.050 0-1.556-1.256-2.812-2.812-2.812-0.112 0-0.225 0.019-0.338 0.037l-0.694-1.387c-0.244-0.469-0.806-0.656-1.256-0.431-0.469 0.244-0.656 0.806-0.431 1.256l0.694 1.387c-0.487 0.506-0.787 1.2-0.787 1.95 0 1.294 0.881 2.381 2.081 2.7-0.131 0.319-0.206 0.675-0.206 1.050 0 0.338 0.056 0.637 0.169 0.937h5.287c0.113-0.3 0.169-0.6 0.169-0.937 0-1.294-0.881-2.381-2.081-2.7z"></path>
<path d="M24.437 3.751c-1.753 0-3.401 0.683-4.64 1.923-0.366 0.366-0.366 0.959 0 1.326l0.502 0.502h4.138c1.551 0 2.812 1.262 2.812 2.812v1.875c0 0.679-0.133 1.321-0.326 1.938l0.827 0.827c0.366 0.366 0.959 0.366 1.326 0 1.24-1.239 1.923-2.887 1.923-4.64 0-3.618-2.944-6.562-6.562-6.562z"></path>
</svg>