<?xml version="1.0" encoding="iso-8859-1"?>
<!-- Generator: Adobe Illustrator 18.0.0, SVG Export Plug-In . SVG Version: 6.00 Build 0)  -->
<!DOCTYPE svg PUBLIC "-//W3C//DTD SVG 1.1//EN" "http://www.w3.org/Graphics/SVG/1.1/DTD/svg11.dtd">
<svg version="1.1" id="Capa_1" xmlns="http://www.w3.org/2000/svg" xmlns:xlink="http://www.w3.org/1999/xlink" x="0px" y="0px"
	 viewBox="0 0 483.065 483.065" style="enable-background:new 0 0 483.065 483.065;" xml:space="preserve">
<g id="XMLID_99_">
	<path id="XMLID_106_" d="M419.543,0H63.511C28.425,0,0,28.431,0,63.505v356.054c0,35.076,28.425,63.505,63.511,63.505h356.032
		c35.086,0,63.522-28.429,63.522-63.505V63.505C483.064,28.431,454.629,0,419.543,0z M438.779,392.49
		c0,25.529-20.773,46.294-46.297,46.294H90.572c-25.523,0-46.297-20.765-46.297-46.294V90.574c0-25.529,20.773-46.292,46.297-46.292
		h301.91c25.523,0,46.297,20.763,46.297,46.292V392.49z"/>
	<path id="XMLID_103_" d="M392.482,76.485H90.572c-7.769,0-14.089,6.322-14.089,14.089V392.49c0,7.768,6.32,14.09,14.089,14.09
		h301.91c7.766,0,14.098-6.322,14.098-14.09V90.574C406.58,82.807,400.248,76.485,392.482,76.485z M362.388,257.634h-25.191
		c-2.51,15.009-8.459,28.839-17.049,40.682l17.946,17.948c6.288,6.292,6.288,16.481,0,22.77c-3.146,3.146-7.269,4.718-11.386,4.718
		c-4.123,0-8.24-1.572-11.383-4.718l-18.09-18.083c-11.834,8.335-25.611,14.036-40.514,16.384v25.97
		c0,8.892-7.203,16.102-16.109,16.102c-8.9,0-16.1-7.21-16.1-16.102V337.06c-14.654-2.61-28.146-8.499-39.752-16.904l-18.869,18.87
		c-3.146,3.146-7.271,4.718-11.388,4.718c-4.114,0-8.24-1.572-11.382-4.718c-6.289-6.29-6.289-16.479,0-22.77l18.992-18.994
		c-8.174-11.606-13.805-25.065-16.258-39.628h-27.011c-8.905,0-16.108-7.21-16.108-16.102c0-8.892,7.203-16.102,16.108-16.102
		h27.011c2.453-14.554,8.084-28.005,16.258-39.61l-18.992-18.997c-6.289-6.289-6.289-16.479,0-22.769
		c6.284-6.289,16.48-6.289,22.77,0l18.85,18.862c11.625-8.405,25.116-14.293,39.771-16.904V119.76c0-8.892,7.2-16.102,16.1-16.102
		c8.906,0,16.109,7.21,16.109,16.102v25.978c14.902,2.35,28.68,8.05,40.531,16.394l18.089-18.092c6.286-6.289,16.474-6.289,22.769,0
		c6.289,6.289,6.289,16.479,0,22.77l-17.963,17.957c8.59,11.84,14.522,25.664,17.049,40.664h25.191
		c8.898,0,16.101,7.21,16.101,16.102C378.488,250.424,371.286,257.634,362.388,257.634z"/>
	<path id="XMLID_100_" d="M241.527,176.628c-35.785,0-64.909,29.123-64.909,64.912c0,35.789,29.124,64.904,64.909,64.904
		c35.793,0,64.915-29.115,64.915-64.904C306.442,205.751,277.32,176.628,241.527,176.628z M241.527,267.321
		c-14.246,0-25.789-11.541-25.789-25.781c0-14.247,11.543-25.788,25.789-25.788c14.246,0,25.789,11.541,25.789,25.788
		C267.316,255.78,255.773,267.321,241.527,267.321z"/>
</g>
<g>
</g>
<g>
</g>
<g>
</g>
<g>
</g>
<g>
</g>
<g>
</g>
<g>
</g>
<g>
</g>
<g>
</g>
<g>
</g>
<g>
</g>
<g>
</g>
<g>
</g>
<g>
</g>
<g>
</g>
</svg>
