<svg version="1.1" xmlns="http://www.w3.org/2000/svg" width="32" height="32" viewBox="0 0 32 32">
<path d="M28.25 28.25h-24.438c-1.036 0-1.875 0.839-1.875 1.875v0.938c0 0.518 0.42 0.938 0.938 0.938h26.313c0.518 0 0.938-0.42 0.938-0.938v-0.938c0-1.036-0.839-1.875-1.875-1.875z"></path>
<path d="M18.813 16.938h3.75v3.75h-3.75v-3.75z"></path>
<path d="M31.063 16.938h-6.625v4.688c0 0.518-0.419 0.938-0.938 0.938h-5.625c-0.518 0-0.938-0.419-0.938-0.938v-4.688h-7.5v-0.938c0-1.551-1.262-2.813-2.813-2.813h-0.938v-8.5c0-1.551 1.262-2.813 2.813-2.813 1.27 0 2.333 0.851 2.682 2.009-2.069 0.486-3.619 2.338-3.619 4.553 0 0.518 0.419 0.938 0.938 0.938h7.5c0.518 0 0.938-0.419 0.938-0.938 0-2.293-1.658-4.199-3.836-4.601-0.403-2.178-2.308-3.836-4.601-3.836-2.585 0-4.688 2.103-4.688 4.688v12.25h-2.875c-0.518 0-0.938 0.419-0.938 0.938s0.419 0.938 0.938 0.938h1.169l1.5 7.563h24.849l1.5-7.563h1.107c0.518 0 0.938-0.419 0.938-0.938s-0.419-0.938-0.938-0.938z"></path>
</svg>