<svg version="1.1" xmlns="http://www.w3.org/2000/svg" width="32" height="32" viewBox="0 0 32 32">
<path d="M29.188 15.063h-9.438c0 2.068-1.682 3.75-3.75 3.75s-3.75-1.682-3.75-3.75h-9.438c-1.551 0-2.813 1.262-2.813 2.813v7.5c0 1.551 1.262 2.813 2.813 2.813h0.938v0.938c0 0.518 0.419 0.938 0.938 0.938s0.938-0.419 0.938-0.938v-0.938h20.688v0.938c0 0.518 0.419 0.938 0.938 0.938s0.938-0.419 0.938-0.938v-0.938h1c1.551 0 2.813-1.262 2.813-2.813v-7.5c0-1.551-1.262-2.813-2.813-2.813zM13.188 23.5c0 0.518-0.419 0.938-0.938 0.938h-7.563c-0.518 0-0.938-0.419-0.938-0.938v-3.75c0-0.518 0.419-0.938 0.938-0.938h7.563c0.518 0 0.938 0.419 0.938 0.938v3.75zM20.688 23.5c0 0.518-0.419 0.938-0.938 0.938s-0.938-0.419-0.938-0.938v-3.75c0-0.518 0.419-0.938 0.938-0.938s0.938 0.419 0.938 0.938v3.75zM24.438 23.5c0 0.518-0.419 0.938-0.938 0.938s-0.938-0.419-0.938-0.938v-3.75c0-0.518 0.419-0.938 0.938-0.938s0.938 0.419 0.938 0.938v3.75zM28.188 23.5c0 0.518-0.419 0.938-0.938 0.938s-0.938-0.419-0.938-0.938v-3.75c0-0.518 0.419-0.938 0.938-0.938s0.938 0.419 0.938 0.938v3.75z"></path>
<path d="M5.625 20.688h5.688v1.875h-5.688v-1.875z"></path>
<path d="M25.939 6.061c-2.659-2.659-6.189-4.124-9.939-4.124s-7.28 1.465-9.939 4.124c-0.366 0.366-0.366 0.96 0 1.326s0.96 0.366 1.326 0c2.305-2.305 5.364-3.574 8.613-3.574s6.308 1.269 8.613 3.574c0.366 0.366 0.959 0.366 1.326 0s0.366-0.96 0-1.326z"></path>
<path d="M23.288 8.711c-1.949-1.95-4.537-3.024-7.288-3.024s-5.339 1.074-7.288 3.024c-0.366 0.366-0.366 0.96 0 1.326s0.96 0.366 1.326 0c1.595-1.596 3.712-2.475 5.963-2.475s4.368 0.879 5.963 2.475c0.366 0.366 0.959 0.366 1.326 0s0.366-0.96 0-1.326z"></path>
<path d="M20.638 11.362c-2.479-2.481-6.797-2.481-9.276 0-0.366 0.366-0.366 0.96 0 1.326s0.96 0.366 1.326 0c1.772-1.774 4.852-1.774 6.625 0 0.366 0.366 0.959 0.366 1.326 0s0.366-0.96 0-1.326z"></path>
<path d="M17.875 15.063c0 1.036-0.839 1.875-1.875 1.875s-1.875-0.839-1.875-1.875c0-1.036 0.839-1.875 1.875-1.875s1.875 0.839 1.875 1.875z"></path>
</svg>