<svg version="1.1" xmlns="http://www.w3.org/2000/svg" width="32" height="32" viewBox="0 0 32 32">
<path d="M19.162 9.31h-6.323c-1.635 0-2.966 1.331-2.966 2.966v1.707h12.255v-1.707c0-1.635-1.331-2.966-2.966-2.966z"></path>
<path d="M26.308 0.308h-20.617c-2.054 0-3.725 1.671-3.725 3.725v10.101c0.405-0.097 0.827-0.15 1.261-0.15h4.48v-1.707c0-2.829 2.302-5.131 5.131-5.131h6.323c2.829 0 5.131 2.302 5.131 5.131v1.707h4.48c0.434 0 0.856 0.053 1.261 0.15v-10.101c-0-2.054-1.671-3.725-3.725-3.725z"></path>
<path d="M28.773 16.148h-25.545c-1.78-0-3.228 1.448-3.228 3.227v6.452h32v-6.452c0-1.78-1.448-3.227-3.227-3.227z"></path>
<path d="M27.869 25.992v2.618c0 0.598 0.485 1.082 1.082 1.082s1.082-0.485 1.082-1.082v-2.618h-2.165z"></path>
<path d="M1.967 25.992v2.618c0 0.598 0.485 1.082 1.082 1.082s1.082-0.485 1.082-1.082v-2.618h-2.165z"></path>
</svg>