<svg version="1.1" xmlns="http://www.w3.org/2000/svg" width="32" height="32" viewBox="0 0 32 32">
<path d="M11.879 26.188c0.89-0.593 1.421-1.586 1.421-2.655s-0.531-2.062-1.421-2.655c-0.434-0.288-1.014-0.172-1.3 0.26s-0.17 1.014 0.26 1.3c0.373 0.248 0.586 0.647 0.586 1.095s-0.213 0.847-0.586 1.095c-0.89 0.593-1.421 1.586-1.421 2.655s0.531 2.062 1.421 2.655c0.438 0.291 1.018 0.165 1.3-0.26 0.287-0.431 0.171-1.013-0.26-1.3-0.373-0.248-0.586-0.647-0.586-1.095s0.213-0.847 0.586-1.095z"></path>
<path d="M16.567 26.188c0.89-0.593 1.421-1.586 1.421-2.655s-0.531-2.062-1.421-2.655c-0.434-0.288-1.014-0.172-1.3 0.26s-0.17 1.014 0.26 1.3c0.373 0.248 0.586 0.647 0.586 1.095s-0.213 0.847-0.586 1.095c-0.89 0.593-1.421 1.586-1.421 2.655s0.531 2.062 1.421 2.655c0.438 0.291 1.017 0.165 1.3-0.26 0.288-0.431 0.171-1.013-0.26-1.3-0.373-0.248-0.586-0.647-0.586-1.095s0.213-0.847 0.586-1.095z"></path>
<path d="M21.254 26.188c0.89-0.593 1.421-1.586 1.421-2.655s-0.531-2.062-1.421-2.655c-0.435-0.288-1.014-0.172-1.3 0.26s-0.17 1.014 0.26 1.3c0.373 0.248 0.586 0.647 0.586 1.095s-0.213 0.847-0.586 1.095c-0.89 0.593-1.421 1.586-1.421 2.655s0.531 2.062 1.421 2.655c0.438 0.291 1.017 0.165 1.3-0.26 0.288-0.431 0.171-1.013-0.26-1.3-0.373-0.248-0.586-0.647-0.586-1.095s0.213-0.847 0.586-1.095z"></path>
<path d="M0 7.529v5.625h32v-5.625h-32zM4.686 11.279c-0.518 0-0.938-0.42-0.938-0.938s0.42-0.938 0.938-0.938c0.518 0 0.938 0.42 0.938 0.938s-0.42 0.938-0.938 0.938zM8.498 11.279c-0.518 0-0.938-0.42-0.938-0.938s0.42-0.938 0.938-0.938c0.518 0 0.938 0.42 0.938 0.938s-0.42 0.938-0.938 0.938z"></path>
<path d="M29.125 1.904h-26.313c-1.551 0-2.813 1.262-2.813 2.813v0.938h32v-0.938c0-1.551-1.324-2.813-2.875-2.813z"></path>
<path d="M0.206 15.029l1.342 5.371c0.313 1.253 1.436 2.13 2.728 2.13h2.349c0.518 0 0.938-0.419 0.938-0.938v-2.813h16.875v2.813c0 0.518 0.419 0.938 0.938 0.938h2.286c1.293 0 2.415-0.876 2.728-2.13l1.405-5.37h-31.588z"></path>
</svg>