<svg version="1.1" xmlns="http://www.w3.org/2000/svg" width="32" height="32" viewBox="0 0 32 32">
<path d="M9.375 7.563c-2.068 0-3.75 1.682-3.75 3.75s1.682 3.75 3.75 3.75 3.75-1.682 3.75-3.75-1.682-3.75-3.75-3.75zM9.375 13.188c-1.034 0-1.875-0.841-1.875-1.875s0.841-1.875 1.875-1.875c1.034 0 1.875 0.841 1.875 1.875s-0.841 1.875-1.875 1.875z"></path>
<path d="M31.611 5.864c-0.245-0.176-0.559-0.225-0.845-0.128l-4.453 1.464v8.226l4.453 1.464c0.273 0.093 0.591 0.054 0.845-0.128 0.244-0.177 0.389-0.46 0.389-0.761v-9.375c0-0.301-0.145-0.584-0.389-0.761z"></path>
<path d="M12.418 2.442c-0.979-0.335-2.002-0.504-3.043-0.504-5.169 0-9.375 4.206-9.375 9.375s4.206 9.375 9.375 9.375c1.041 0 2.064-0.169 3.082-0.519l11.981-4.669v-8.373l-12.019-4.684zM9.375 16.938c-3.102 0-5.625-2.523-5.625-5.625s2.523-5.625 5.625-5.625c3.102 0 5.625 2.523 5.625 5.625s-2.523 5.625-5.625 5.625z"></path>
<path d="M13.356 21.83l-0.453 2.037c-0.829 0.266-1.637 0.407-2.445 0.487l0.427-1.92c-0.504 0.069-1.006 0.128-1.51 0.128-2.088 0-4.037-0.582-5.714-1.576l-1.021 4.595c-0.511 2.3 1.242 4.482 3.595 4.482 1.739 0 3.218-1.186 3.596-2.884l0.201-0.904c1.25-0.064 2.485-0.288 3.793-0.74l0.224-0.088c0.29-0.113 0.505-0.364 0.573-0.669l0.838-3.773-2.104 0.825z"></path>
</svg>