<svg version="1.1" xmlns="http://www.w3.org/2000/svg" width="32" height="32" viewBox="0 0 32 32">
<path d="M9.805 18.875c1.247 4.38 5.388 7.5 10.008 7.5 1.678 0 3.267-0.434 4.688-1.165 1.88-0.967 3.429-2.493 4.417-4.382 0.001-0.002 0.002-0.003 0.002-0.005 0.32-0.613 0.577-1.266 0.771-1.948h-19.886z"></path>
<path d="M19.813 28.25c-5.64 0-10.662-3.926-11.957-9.375h-7.452c0.58 2.055 1.778 3.899 3.501 5.267 1.010 0.802 1.418 2.052 1.042 3.181l-1.147 3.442c-0.096 0.287-0.048 0.601 0.128 0.845s0.46 0.389 0.761 0.389h18.875c0.518 0 0.938-0.419 0.938-0.938v-3.795c-1.457 0.613-3.033 0.982-4.688 0.982z"></path>
<path d="M29.188 13.25c-2.97 0-19.524 0-19.813 0v-7.625h0.938c1.551 0 2.813-1.262 2.813-2.813s-1.262-2.813-2.813-2.813h-7.5c-1.551 0-2.813 1.262-2.813 2.813 0 0.526 0 12.84 0 13.25 0 0.316 0.025 0.627 0.053 0.938 0.417 0 31.275 0 31.753 0 0.115-0.293 0.194-0.602 0.194-0.938 0-1.551-1.262-2.813-2.813-2.813zM1.875 2.813c0-0.517 0.42-0.938 0.938-0.938h7.5c0.517 0 0.938 0.42 0.938 0.938s-0.42 0.938-0.938 0.938h-8.438v-0.938z"></path>
</svg>