<svg version="1.1" xmlns="http://www.w3.org/2000/svg" width="32" height="32" viewBox="0 0 32 32">
<path d="M31.463 27.326c-1.557-1.756-3.722-2.581-5.931-2.301l-1.012-3.863c3.858-1.566 5.737-5.973 4.16-9.851l-2.869-7.057c-0.178-0.438-0.654-0.675-1.111-0.553l-8.686 2.327-8.686-2.328c-0.457-0.122-0.933 0.115-1.111 0.552l-2.869 7.057c-1.569 3.86 0.284 8.277 4.16 9.851l-1.012 3.863c-2.222-0.284-4.397 0.541-5.958 2.302-0.296 0.333-0.663 0.654-0.489 1.226 0.095 0.312 0.345 0.552 0.661 0.634l10.698 2.783c0.313 0.081 0.646-0.004 0.881-0.227 0.429-0.407 0.275-0.859 0.185-1.302-0.446-2.179-1.932-4.028-4.165-4.936l1.010-3.858c2.546 0.357 5.034-0.616 6.695-2.485 1.468 1.663 3.548 2.555 5.666 2.555 0.343 0 0.687-0.024 1.029-0.071l1.011 3.859c-2.232 0.907-3.719 2.756-4.165 4.936-0.083 0.405-0.254 0.886 0.185 1.302 0.235 0.223 0.568 0.309 0.882 0.227l10.67-2.783c0.316-0.082 0.566-0.323 0.66-0.635 0.173-0.569-0.189-0.888-0.489-1.226zM7.642 5.727l5.548 1.486c-0.047 0.136-0.064 0.284-0.043 0.434l0.725 5.239c-1.221 0.75-2.613 0.6-3.765-0.451-1.386-1.264-3.092-1.676-4.688-1.24l2.223-5.469zM10.283 29.74l-7.494-1.95c1.199-0.888 2.662-1.17 4.149-0.772 1.541 0.413 2.732 1.398 3.345 2.721zM8.879 19.648c-2.662-0.713-4.44-3.242-4.189-6.005 1.306-1.045 2.876-0.986 4.153 0.178 1.501 1.369 3.462 1.801 5.3 1.028 0.072 0.52 0.176 1.492 0.777 2.692-1.375 1.85-3.784 2.712-6.040 2.107zM15.59 11.632l-0.473-3.422 9.269-2.484 2.41 5.928c-0.378 0.21-0.738 0.471-1.077 0.78-1.345 1.227-3.017 1.227-4.362 0-1.705-1.555-3.895-1.822-5.767-0.803zM23.149 19.648c-3.301 0.885-6.634-1.328-7.102-4.712l-0.172-1.241c1.319-1.1 2.92-1.058 4.218 0.125 2.060 1.879 4.829 1.879 6.889 0 0.112-0.102 0.227-0.196 0.345-0.282 0.305 2.794-1.475 5.384-4.178 6.109zM21.746 29.738c0.613-1.323 1.804-2.307 3.345-2.72 1.443-0.387 2.902-0.132 4.122 0.772l-7.467 1.948z"></path>
<path d="M15.991 0c-0.518 0-0.938 0.42-0.938 0.938v1.875c0 0.518 0.42 0.938 0.938 0.938s0.938-0.42 0.938-0.938v-1.875c0-0.518-0.42-0.938-0.938-0.938z"></path>
<path d="M12.903 2.15l-1.875-1.875c-0.366-0.366-0.96-0.366-1.326 0s-0.366 0.96 0 1.326l1.875 1.875c0.366 0.366 0.96 0.366 1.326 0s0.366-0.96-0-1.326z"></path>
<path d="M22.279 0.275c-0.366-0.366-0.96-0.366-1.326 0l-1.875 1.875c-0.366 0.366-0.366 0.96 0 1.326s0.96 0.366 1.326 0l1.875-1.875c0.366-0.366 0.366-0.96 0-1.326z"></path>
</svg>