<svg version="1.1" xmlns="http://www.w3.org/2000/svg" width="32" height="32" viewBox="0 0 32 32">
<path d="M7.25 27.208h5.537v4.791h-5.537v-4.791z"></path>
<path d="M23.953 16.604c-0.836-0.904-1.297-2.081-1.297-3.312v-3.802h-1.348v3.802c0 1.232-0.461 2.408-1.297 3.312-0.514 0.556-0.797 1.279-0.797 2.036v0.745h5.537v-0.745c0-0.757-0.283-1.48-0.797-2.036z"></path>
<path d="M11.989 16.604c-0.836-0.904-1.297-2.081-1.297-3.312v-3.802h-1.348v3.802c0 1.232-0.461 2.408-1.297 3.312-0.514 0.556-0.797 1.279-0.797 2.036v0.745h5.537v-0.745c0-0.757-0.283-1.48-0.797-2.036z"></path>
<path d="M7.25 21.265h5.537v4.065h-5.537v-4.065z"></path>
<path d="M27.311 0h-22.621c-2.269 0-4.115 1.846-4.115 4.115v23.77c0 2.269 1.846 4.115 4.115 4.115h0.682v-13.359c0-1.232 0.461-2.408 1.297-3.312 0.514-0.556 0.797-1.279 0.797-2.037v-4.741c0-0.519 0.421-0.939 0.939-0.939h3.227c0.519 0 0.939 0.421 0.939 0.939v4.741c0 0.757 0.283 1.481 0.797 2.037 0.836 0.904 1.297 2.081 1.297 3.312v13.359h2.669v-13.359c0-1.232 0.461-2.408 1.297-3.312 0.514-0.556 0.797-1.279 0.797-2.037v-4.741c0-0.519 0.421-0.939 0.939-0.939h3.227c0.519 0 0.939 0.421 0.939 0.939v4.741c0 0.757 0.283 1.481 0.797 2.037 0.836 0.904 1.297 2.081 1.297 3.312v13.359h0.682c2.269 0 4.115-1.846 4.115-4.115v-23.77c0-2.269-1.846-4.115-4.115-4.115z"></path>
<path d="M19.214 27.208h5.537v4.791h-5.537v-4.791z"></path>
<path d="M19.214 21.265h5.537v4.065h-5.537v-4.065z"></path>
</svg>