<svg version="1.1" xmlns="http://www.w3.org/2000/svg" width="32" height="32" viewBox="0 0 32 32">
<path d="M20.187 0.89c-0.344-0.558-0.941-0.89-1.596-0.89h-5.182c-0.655 0-1.252 0.332-1.596 0.889s-0.374 1.24-0.082 1.825l3.43 6.859c0.345 0.691 1.331 0.691 1.677 0l3.43-6.859c0.293-0.585 0.263-1.267-0.081-1.824z"></path>
<path d="M14.664 11.612c-0.496-0.269-0.916-0.672-1.18-1.201l-3.43-6.858c-0.224-0.447-0.323-0.922-0.359-1.401l-4.478 1.034c-1.917 0.442-3.353 2.034-3.597 3.986l-1.612 10.525c-0.070 0.559 0.366 1.054 0.93 1.054h6.456l-1.693-10.159c-0.085-0.511 0.26-0.993 0.771-1.079 0.513-0.093 0.994 0.26 1.079 0.771l1.744 10.466h8.939l-3.569-7.138z"></path>
<path d="M26.3 30.909l-1.693-10.284h-3.919v11.375h4.687c0.276 0 0.537-0.121 0.715-0.331s0.255-0.488 0.21-0.76z"></path>
<path d="M31.993 17.696l-1.613-10.525c-0.244-1.952-1.681-3.544-3.597-3.986l-4.478-1.034c-0.036 0.478-0.136 0.955-0.36 1.402l-3.429 6.858c-0.344 0.69-0.945 1.181-1.651 1.409l3.465 6.93h2.402l1.724-8.621c0.101-0.508 0.591-0.843 1.103-0.735 0.507 0.102 0.837 0.595 0.735 1.103l-1.651 8.253h6.419c0.564 0 1-0.494 0.93-1.054z"></path>
<path d="M14.788 25.975c-0.366 0.366-0.96 0.366-1.326 0s-0.366-0.959 0-1.326l4.025-4.025h-10.094l-1.693 10.284c-0.046 0.272 0.031 0.549 0.21 0.76s0.439 0.331 0.715 0.331h12.187v-10.049l-4.025 4.025z"></path>
</svg>