<svg version="1.1" xmlns="http://www.w3.org/2000/svg" width="32" height="32" viewBox="0 0 32 32">
<path d="M8.073 26.401h-1.896c-0.433 0-0.813 0.379-0.813 0.813s0.379 0.813 0.813 0.813h1.896v1.842c0 0.433 0.379 0.813 0.813 0.813s0.813-0.379 0.813-0.813v-1.842h1.896c0.433 0 0.813-0.379 0.813-0.813s-0.379-0.813-0.813-0.813h-1.896v-3.9c4.551-0.433 8.126-4.226 8.126-8.884 0-1.517-0.379-3.034-1.138-4.334-0.217-0.379-0.704-0.542-1.083-0.325s-0.542 0.704-0.325 1.083c0.596 1.083 0.921 2.329 0.921 3.575 0 4.009-3.305 7.313-7.313 7.313s-7.313-3.305-7.313-7.313 3.305-7.313 7.313-7.313c0.975 0 1.95 0.217 2.871 0.596 0.433 0.163 0.867 0 1.083-0.433 0.163-0.433 0-0.867-0.433-1.083-1.083-0.488-2.275-0.704-3.467-0.704-4.93 0-8.939 4.009-8.939 8.939 0 4.659 3.575 8.505 8.126 8.884v3.9z"></path>
<path d="M31.963 1.807c-0.108-0.217-0.217-0.379-0.433-0.433 0 0 0 0 0 0-0.108-0.054-0.217-0.054-0.271-0.054h-3.9c-0.433 0-0.813 0.379-0.813 0.813s0.379 0.813 0.813 0.813h1.842l-3.792 3.792c-1.625-1.354-3.63-2.059-5.742-2.059-2.384 0-4.659 0.921-6.338 2.6-2.817 2.817-3.413 7.205-1.517 10.672 0.217 0.379 0.704 0.542 1.083 0.325s0.542-0.704 0.325-1.083c-1.571-2.817-1.083-6.447 1.246-8.722 1.354-1.354 3.196-2.167 5.146-2.167s3.792 0.758 5.146 2.167 2.167 3.196 2.167 5.146c0 1.95-0.758 3.792-2.167 5.146-2.113 2.113-5.255 2.709-7.963 1.571-0.433-0.163-0.867 0-1.083 0.433-0.163 0.433 0 0.867 0.433 1.083 1.138 0.488 2.275 0.704 3.467 0.704 2.329 0 4.605-0.921 6.338-2.6 1.679-1.679 2.6-3.955 2.6-6.338 0-2.113-0.758-4.117-2.059-5.742l3.792-3.792v1.842c0 0.433 0.379 0.813 0.813 0.813s0.813-0.379 0.813-0.813v-3.846c0.108-0.054 0.108-0.163 0.054-0.271 0 0 0 0 0 0z"></path>
</svg>