<svg version="1.1" xmlns="http://www.w3.org/2000/svg" width="32" height="32" viewBox="0 0 32 32">
<path d="M16 5.688c-3.618 0-6.563 2.944-6.563 6.563s2.944 6.563 6.563 6.563 6.563-2.944 6.563-6.563-2.944-6.563-6.563-6.563zM16.938 13.188h-1.875v2.813c0 0.518-0.419 0.938-0.938 0.938s-0.938-0.419-0.938-0.938v-7.5c0-0.518 0.419-0.938 0.938-0.938h2.813c1.551 0 2.813 1.262 2.813 2.813s-1.262 2.813-2.813 2.813z"></path>
<path d="M16.938 9.438h-1.875v1.875h1.875c0.517 0 0.938-0.42 0.938-0.938s-0.42-0.938-0.938-0.938z"></path>
<path d="M16 0c-6.72 0-12.188 5.53-12.188 12.25 0 2.652 0.84 5.175 2.431 7.297l9.007 12.078c0.177 0.236 0.455 0.375 0.75 0.375s0.573-0.139 0.75-0.375l9.007-12.078c1.59-2.121 2.431-4.644 2.431-7.297 0-6.72-5.468-12.25-12.188-12.25zM16 20.688c-4.653 0-8.438-3.785-8.438-8.438s3.785-8.438 8.438-8.438 8.438 3.785 8.438 8.438-3.785 8.438-8.438 8.438z"></path>
</svg>