<svg version="1.1" xmlns="http://www.w3.org/2000/svg" width="32" height="32" viewBox="0 0 32 32">
<path d="M2.857 10.893c0 0.787-0.638 1.425-1.425 1.425s-1.425-0.638-1.425-1.425c0-0.787 0.638-1.425 1.425-1.425s1.425 0.638 1.425 1.425z"></path>
<path d="M8.726 8.070c0 1.265-1.026 2.291-2.291 2.291s-2.291-1.026-2.291-2.291c0-1.265 1.026-2.291 2.291-2.291s2.291 1.026 2.291 2.291z"></path>
<path d="M6.771 3.991c0 0.587-0.475 1.062-1.062 1.062s-1.062-0.475-1.062-1.062c0-0.587 0.475-1.062 1.062-1.062s1.062 0.475 1.062 1.062z"></path>
<path d="M31.992 17.389h-31.984c1.138 3.565 3.44 6.603 6.451 8.691l-2.991 2.991h2.375l2.081-2.081c2.397 1.32 5.147 2.081 8.078 2.081 2.92 0 5.659-0.754 8.051-2.065l2.065 2.065h2.375l-2.974-2.974c3.022-2.087 5.333-5.133 6.475-8.708z"></path>
<path d="M26.913 4.817c1.854 0 3.358 1.503 3.358 3.358v5.821h-30.22v2.483h31.899v-8.305c0-0.137-0.011-0.272-0.021-0.407-0.001-0.041-0.003-0.069-0.003-0.069h-0.001c-0.241-2.557-2.392-4.56-5.013-4.56-2.781 0-5.037 2.255-5.037 5.037h1.679c0-1.855 1.503-3.359 3.357-3.359z"></path>
</svg>