<svg version="1.1" xmlns="http://www.w3.org/2000/svg" width="32" height="32" viewBox="0 0 32 32">
<path d="M31.27 7.785c0.22-0.743 0-1.289-1.057-1.289h-3.499c-0.891 0-1.301 0.469-1.521 0.992 0 0-1.782 4.342-4.301 7.158-0.814 0.814-1.188 1.075-1.634 1.075-0.22 0-0.558-0.261-0.558-1.004v-6.932c0-0.891-0.25-1.289-0.986-1.289h-5.501c-0.558 0-0.891 0.416-0.891 0.802 0 0.844 1.259 1.040 1.39 3.416v5.156c0 1.129-0.202 1.337-0.647 1.337-1.188 0-4.075-4.36-5.786-9.35-0.345-0.968-0.683-1.36-1.58-1.36h-3.499c-0.998 0-1.2 0.469-1.2 0.992 0 0.927 1.188 5.53 5.53 11.613 2.893 4.152 6.968 6.404 10.675 6.404 2.228 0 2.501-0.499 2.501-1.36 0-3.968-0.202-4.342 0.915-4.342 0.517 0 1.408 0.261 3.487 2.263 2.376 2.376 2.768 3.439 4.099 3.439h3.499c0.998 0 1.503-0.499 1.212-1.485-0.665-2.073-5.162-6.338-5.364-6.623-0.517-0.665-0.368-0.962 0-1.556 0.006-0.006 4.277-6.017 4.717-8.055z"></path>
</svg>