<svg version="1.1" xmlns="http://www.w3.org/2000/svg" width="32" height="32" viewBox="0 0 32 32">
<path d="M13.037 6.519h-7.111c-1.309 0-2.37 1.061-2.37 2.37v3.272c-2.166 1.738-3.556 4.402-3.556 7.395 0 5.236 4.245 9.481 9.481 9.481 1.558 0 3.024-0.383 4.321-1.049-0.679-0.975-1.194-2.069-1.517-3.245-0.839 0.455-1.785 0.738-2.804 0.738-3.268 0-5.926-2.658-5.926-5.926 0-3.179 2.522-5.762 5.668-5.9l0.021-0.026h4.479l0.010-0.010c0.933-0.054 1.674-0.821 1.674-1.767v-2.963c0-1.309-1.061-2.37-2.37-2.37zM9.481 26.667c0.327 0 0.593 0.265 0.593 0.593s-0.265 0.593-0.593 0.593-0.593-0.265-0.593-0.593 0.265-0.593 0.593-0.593zM9.481 11.259c-0.655 0-1.185-0.531-1.185-1.185s0.53-1.185 1.185-1.185c0.655 0 1.185 0.531 1.185 1.185s-0.531 1.185-1.185 1.185z"></path>
<path d="M22.519 3.235h-2.37c-0.010 0-0.019 0.003-0.028 0.003 0.011-0.091 0.028-0.18 0.028-0.274 0-1.304-1.067-2.37-2.37-2.37h-2.37c-0.712 0-1.345 0.324-1.78 0.825-0.435-0.501-1.069-0.825-1.781-0.825h-2.37c-1.304 0-2.37 1.067-2.37 2.37s1.067 2.37 2.37 2.37h2.37c0.712 0 1.345-0.324 1.781-0.825 0.435 0.501 1.069 0.825 1.78 0.825h2.37c0.010 0 0.018-0.003 0.028-0.003-0.011 0.091-0.028 0.181-0.028 0.274 0 1.304 1.067 2.37 2.37 2.37h2.37c1.304 0 2.37-1.067 2.37-2.37s-1.067-2.37-2.37-2.37zM11.846 4.148h-2.37c-0.653 0-1.185-0.532-1.185-1.185s0.532-1.185 1.185-1.185h2.37c0.654 0 1.185 0.532 1.185 1.185s-0.532 1.185-1.185 1.185zM17.778 4.148h-2.37c-0.654 0-1.185-0.532-1.185-1.185s0.532-1.185 1.185-1.185h2.37c0.653 0 1.185 0.532 1.185 1.185s-0.532 1.185-1.185 1.185zM22.519 6.79h-2.37c-0.654 0-1.185-0.532-1.185-1.185s0.532-1.185 1.185-1.185h2.37c0.653 0 1.185 0.532 1.185 1.185s-0.532 1.185-1.185 1.185z"></path>
<path d="M29.383 15.398c-0.456 1.050-1.501 1.787-2.717 1.787h-0.629c1.452 1.081 2.407 2.795 2.407 4.741 0 3.268-2.658 5.926-5.926 5.926s-5.926-2.658-5.926-5.926c0-3.179 2.522-5.762 5.668-5.9l0.021-0.026h4.479l0.010-0.010c0.933-0.054 1.674-0.821 1.674-1.767v-2.963c0-1.309-1.061-2.37-2.37-2.37h-7.111c-1.309 0-2.37 1.061-2.37 2.37v3.272c-2.166 1.738-3.556 4.402-3.556 7.395 0 5.236 4.245 9.481 9.481 9.481s9.481-4.245 9.481-9.481c0-2.532-0.999-4.827-2.617-6.528zM22.519 11.259c0.655 0 1.185 0.531 1.185 1.185s-0.531 1.185-1.185 1.185c-0.655 0-1.185-0.531-1.185-1.185s0.53-1.185 1.185-1.185zM22.519 30.222c-0.327 0-0.593-0.265-0.593-0.593s0.265-0.593 0.593-0.593 0.593 0.265 0.593 0.593-0.265 0.593-0.593 0.593z"></path>
</svg>