<svg width="20" height="20" viewBox="0 0 20 20" fill="none" xmlns="http://www.w3.org/2000/svg">
<path d="M8.54094 6.71252H5.81703C5.38403 6.71252 5.0318 7.06479 5.0318 7.49776V8.85022H9.32621V7.49776C9.32625 7.06479 8.97395 6.71252 8.54094 6.71252Z" fill="white"/>
<path d="M14.1829 6.71252H11.459C11.026 6.71252 10.6738 7.06479 10.6738 7.49776V8.85022H14.9682V7.49776C14.9682 7.06479 14.6159 6.71252 14.1829 6.71252Z" fill="white"/>
<path d="M18.4771 10.1977H1.52293C0.683164 10.1977 0 10.8809 0 11.7206V14.887H20V11.7206C20 10.8809 19.3168 10.1977 18.4771 10.1977Z" fill="white"/>
<path d="M17.2211 1.8797H2.77891C1.66469 1.8797 0.758163 2.78622 0.758163 3.90044V8.95443C1.00184 8.887 1.25809 8.85017 1.52293 8.85017H3.68434V7.49771C3.68434 6.32169 4.64105 5.36493 5.81711 5.36493H8.54102C9.10504 5.36493 9.6182 5.5854 10 5.94419C10.3818 5.5854 10.895 5.36493 11.459 5.36493H14.1829C15.3589 5.36493 16.3157 6.32173 16.3157 7.49771V8.85017H18.4771C18.7419 8.85017 18.9982 8.88697 19.2418 8.95443V3.90044C19.2418 2.78622 18.3353 1.8797 17.2211 1.8797Z" fill="white"/>
<path d="M17.8943 16.2345V17.4465C17.8943 17.8186 18.196 18.1203 18.5681 18.1203C18.9402 18.1203 19.2418 17.8186 19.2418 17.4465V16.2345H17.8943Z" fill="white"/>
<path d="M0.758163 16.2345V17.4465C0.758163 17.8186 1.05984 18.1203 1.43191 18.1203C1.80402 18.1203 2.10566 17.8186 2.10566 17.4465V16.2345H0.758163Z" fill="white"/>
</svg>
