<svg width="24" height="24" viewBox="0 0 24 24" fill="none" xmlns="http://www.w3.org/2000/svg">
<g clip-path="url(#clip0_7_6998)">
<path d="M22.7913 11.2516L12.1689 0.628049C11.7504 0.209529 11.202 0 10.6537 0C10.1054 0 9.55651 0.209529 9.13853 0.628049L3.32126 6.44424C2.48422 7.28128 2.48422 8.6645 3.32126 9.50154L4.28542 10.4921H6.50945L4.43354 8.38925C4.28811 8.24328 4.26657 8.06069 4.26657 7.97235C4.26657 7.88401 4.28811 7.70788 4.43354 7.56245L5.20164 6.81805L8.85198 10.4921H12.3536L6.95221 5.06372L10.2503 1.75272C10.3957 1.60729 10.5654 1.57982 10.6537 1.57982C10.742 1.57982 10.9117 1.59813 11.0572 1.74303L21.6801 12.3649C21.8261 12.5109 21.8482 12.679 21.8482 12.7678C21.8482 12.8562 21.8105 13.0253 21.6645 13.1713L21.0623 13.7589V15.9829L22.7773 14.2835C23.6138 13.4449 23.6289 12.0886 22.7913 11.2516Z" fill="#9E9E9E"/>
<path d="M17.8073 11.488H2.78313C1.59974 11.488 0.587646 12.4414 0.587646 13.6248V19.3074H19.9236V13.6248C19.9236 12.4414 18.9907 11.488 17.8073 11.488ZM5.83827 17.3726C5.41867 17.3726 5.03893 17.2057 4.75884 16.9363C4.47875 17.2057 4.09848 17.3726 3.67996 17.3726C2.81921 17.3726 2.1206 16.6751 2.1206 15.8127C2.1206 14.9515 2.81868 14.2534 3.67996 14.2534C4.09901 14.2534 4.47929 14.4198 4.75884 14.6891C5.03893 14.4198 5.41867 14.2534 5.83827 14.2534C6.69955 14.2534 7.39762 14.9515 7.39762 15.8127C7.39762 16.6751 6.69955 17.3726 5.83827 17.3726Z" fill="#9E9E9E"/>
<path d="M0.587646 21.8503C0.587646 23.0337 1.5992 23.9995 2.78313 23.9995H17.8073C18.9907 23.9995 19.9241 23.0337 19.9241 21.8503V21.7243H0.587646V21.8503Z" fill="#9E9E9E"/>
</g>
<defs>
<clipPath id="clip0_7_6998">
<rect width="24" height="24" fill="white"/>
</clipPath>
</defs>
</svg>
