<svg width="20" height="20" viewBox="0 0 20 20" fill="none" xmlns="http://www.w3.org/2000/svg">
<path d="M4.19355 4.52706H2.1066C1.49673 4.52706 1 5.0293 1 5.64628V6.05818C1 8.23142 2.45332 10.0537 4.50008 10.5651C5.17734 12.5515 6.92404 14.0346 9.04354 14.3083V15.8167C7.95777 16.0453 7.02412 16.7815 6.56542 17.8334L6.05766 18.9973C5.96107 19.2184 5.98177 19.4734 6.11216 19.6756C6.24255 19.8779 6.46539 20 6.70409 20H12.7959C13.0346 20 13.2575 19.8779 13.3878 19.6756C13.5182 19.4734 13.5389 19.2184 13.4423 18.9973L12.9346 17.8338C12.4759 16.7816 11.5422 16.0453 10.4565 15.8168V14.3083C12.576 14.0346 14.3227 12.5515 14.9999 10.5651C17.0467 10.0537 18.5 8.23142 18.5 6.05818V5.64628C18.5 5.0293 18.0033 4.52706 17.3934 4.52706H15.3065V3.21673C15.3065 2.82227 14.9905 2.50244 14.6 2.50244H4.9C4.50952 2.50244 4.19355 2.82227 4.19355 3.21673V4.52706ZM15.3065 8.74128V5.95564H17.0871V6.05818C17.0871 7.32884 16.3692 8.42547 15.2958 8.95416C15.2984 8.88293 15.3065 8.81313 15.3065 8.74128ZM2.41291 6.05818V5.95564H4.19355V8.74128C4.19355 8.81313 4.20157 8.88293 4.20424 8.95416C3.13076 8.42547 2.41291 7.32884 2.41291 6.05818ZM4.9 1.42857H14.6C14.9905 1.42857 15.3065 1.10875 15.3065 0.714286C15.3065 0.319824 14.9905 0 14.6 0H4.9C4.50952 0 4.19355 0.319824 4.19355 0.714286C4.19355 1.10875 4.50952 1.42857 4.9 1.42857Z" fill="white"/>
</svg>
