<svg width="24" height="24" viewBox="0 0 24 24" fill="none" xmlns="http://www.w3.org/2000/svg">
<path d="M8.49604 16.608H7.65604C7.46404 16.608 7.29604 16.776 7.29604 16.968C7.29604 17.16 7.46404 17.328 7.65604 17.328H8.49604V18.144C8.49604 18.336 8.66404 18.504 8.85604 18.504C9.04804 18.504 9.21604 18.336 9.21604 18.144V17.328H10.056C10.248 17.328 10.416 17.16 10.416 16.968C10.416 16.776 10.248 16.608 10.056 16.608H9.21604V14.88C11.232 14.688 12.816 13.008 12.816 10.944C12.816 10.272 12.648 9.60001 12.312 9.02401C12.216 8.85601 12 8.78401 11.832 8.88001C11.664 8.97601 11.592 9.19201 11.688 9.36001C11.952 9.84001 12.096 10.392 12.096 10.944C12.096 12.72 10.632 14.184 8.85604 14.184C7.08004 14.184 5.61604 12.72 5.61604 10.944C5.61604 9.16801 7.08004 7.70401 8.85604 7.70401C9.28804 7.70401 9.72004 7.80001 10.128 7.96801C10.32 8.04001 10.512 7.96801 10.608 7.77601C10.68 7.58401 10.608 7.39201 10.416 7.29601C9.93604 7.08001 9.40804 6.98401 8.88004 6.98401C6.69604 6.98401 4.92004 8.76001 4.92004 10.944C4.92004 13.008 6.50404 14.712 8.52004 14.88V16.608H8.49604Z" fill="#474646"/>
<path d="M19.0799 5.71197C19.0319 5.61597 18.9839 5.54397 18.8879 5.51997C18.8399 5.49597 18.7919 5.49597 18.7679 5.49597H17.0399C16.8479 5.49597 16.6799 5.66397 16.6799 5.85597C16.6799 6.04797 16.8479 6.21597 17.0399 6.21597H17.8559L16.1759 7.89597C15.4559 7.29597 14.5679 6.98397 13.6319 6.98397C12.5759 6.98397 11.5679 7.39197 10.8239 8.13597C9.57594 9.38397 9.31194 11.328 10.1519 12.864C10.2479 13.032 10.4639 13.104 10.6319 13.008C10.7999 12.912 10.8719 12.696 10.7759 12.528C10.0799 11.28 10.2959 9.67197 11.3279 8.66397C11.9279 8.06397 12.7439 7.70397 13.6079 7.70397C14.4719 7.70397 15.2879 8.03997 15.8879 8.66397C16.4879 9.28797 16.8479 10.08 16.8479 10.944C16.8479 11.808 16.5119 12.624 15.8879 13.224C14.9519 14.16 13.5599 14.424 12.3599 13.92C12.1679 13.848 11.9759 13.92 11.8799 14.112C11.8079 14.304 11.8799 14.496 12.0719 14.592C12.5759 14.808 13.0799 14.904 13.6079 14.904C14.6399 14.904 15.6479 14.496 16.4159 13.752C17.1599 13.008 17.5679 12 17.5679 10.944C17.5679 10.008 17.2319 9.11997 16.6559 8.39997L18.3359 6.71997V7.53597C18.3359 7.72797 18.5039 7.89597 18.6959 7.89597C18.8879 7.89597 19.0559 7.72797 19.0559 7.53597V5.83197C19.1039 5.80797 19.1039 5.75997 19.0799 5.71197Z" fill="#474646"/>
</svg>
