<svg width="24" height="24" viewBox="0 0 24 24" fill="none" xmlns="http://www.w3.org/2000/svg">
<path d="M22.6174 5.73915C21.5739 3.36524 19.3043 1.82611 16.9043 1.82611C14.4782 1.82611 12.913 2.89568 12 4.0435C11.0869 2.89568 9.52171 1.82611 7.09562 1.82611C4.69562 1.82611 2.42606 3.36524 1.38258 5.73915C0.260841 8.21742 0.730407 10.9565 2.66084 13.0957C7.22606 18.2348 11.2695 21.8609 11.3217 21.887C11.5304 22.0696 11.7652 22.1479 12.0261 22.1479C12.2869 22.1479 12.5217 22.0696 12.7304 21.887C12.7826 21.8609 16.8 18.2087 21.3913 13.0957C23.2695 10.9565 23.7391 8.21742 22.6174 5.73915ZM19.8 11.7131C16.4087 15.4957 13.3304 18.4696 12 19.7218C10.6695 18.4696 7.59128 15.5218 4.19997 11.7131C2.84345 10.1739 2.50432 8.32176 3.26084 6.57394C3.99128 4.98263 5.53041 3.91307 7.09562 3.91307C10.2 3.91307 10.9043 6.23481 10.9826 6.52176C11.0869 6.99133 11.5043 7.30437 11.9739 7.30437C12.4435 7.30437 12.8608 6.96524 12.9913 6.52176C13.0695 6.26089 13.7739 3.91307 16.8782 3.91307C18.4434 3.91307 19.9826 4.98263 20.713 6.60002C21.4956 8.32176 21.1565 10.1739 19.8 11.7131ZM19.5391 8.68698C19.5652 9.18263 19.2 9.62611 18.6782 9.6522C18.6521 9.6522 18.6261 9.6522 18.6261 9.6522C18.1565 9.6522 17.7391 9.28698 17.713 8.79133C17.6087 7.30437 16.6434 7.06959 16.4608 7.0435C15.9652 6.96524 15.6261 6.52176 15.6782 6.02611C15.7565 5.53046 16.2261 5.19133 16.7217 5.2435C17.6348 5.37394 19.3826 6.26089 19.5391 8.68698ZM18.2869 10.2C18.4695 10.4087 18.6 10.6696 18.6 10.9305C18.6 11.2174 18.4956 11.4783 18.2869 11.6609C18.1043 11.8696 17.8174 11.9739 17.5565 11.9739C17.2956 11.9739 17.0087 11.8696 16.8261 11.6609C16.6434 11.4783 16.513 11.1913 16.513 10.9305C16.513 10.6696 16.6174 10.3826 16.8261 10.2C17.0087 10.0174 17.2956 9.88698 17.5565 9.88698C17.8174 9.91307 18.0782 10.0174 18.2869 10.2Z" fill="#474646"/>
</svg>
