<svg width="20" height="20" viewBox="0 0 20 20" fill="none" xmlns="http://www.w3.org/2000/svg">
<path d="M6.4 3.25C3.61914 3.25 1.25 5.3293 1.25 8.0298C1.25 9.89275 2.12235 11.4612 3.27849 12.7604C4.43066 14.0552 5.91714 15.142 7.26097 16.0516L9.57959 17.6211C9.83351 17.793 10.1665 17.793 10.4204 17.6211L12.739 16.0516C14.0829 15.142 15.5693 14.0552 16.7215 12.7604C17.8777 11.4612 18.75 9.89275 18.75 8.0298C18.75 5.3293 16.3809 3.25 13.6 3.25C12.1665 3.25 10.9052 3.92214 10 4.79183C9.09484 3.92214 7.83347 3.25 6.4 3.25Z" fill="white"/>
</svg>
