<svg width="24" height="24" viewBox="0 0 24 24" fill="none" xmlns="http://www.w3.org/2000/svg">
<g clip-path="url(#clip0_7_9526)">
<path d="M4.96875 15.5156H8.60522C8.72626 15.8568 8.9328 16.1578 9.19885 16.3929C7.91821 17.2824 7.07812 18.7635 7.07812 20.4375C7.07812 22.6679 8.47906 23.9008 8.54114 24H15.4589C15.5209 23.9006 16.9219 22.6688 16.9219 20.4375C16.9219 18.7635 16.0818 17.2824 14.8011 16.3929C15.239 16.0062 15.5156 15.4411 15.5156 14.8125C15.5156 13.6494 14.5693 12.7031 13.4062 12.7031H12.7031V11.176C13.3015 10.9638 13.7763 10.489 13.9885 9.89062H17.625C19.359 9.89062 20.8028 8.62848 21.0884 6.97485C21.9338 6.69983 22.5469 5.90479 22.5469 4.96875V1.45312H21.1406V0H19.7344V1.45312H18.3281V4.96875C18.3281 5.85736 18.8807 6.61871 19.66 6.92908C19.4161 7.8241 18.5964 8.48438 17.625 8.48438H13.9885C13.7763 7.88599 13.3015 7.41119 12.7031 7.19897V5.67188H15.5156V4.26562H14.3784L15.7846 0H8.21539L9.62164 4.26562H8.48438V5.67188H11.2969V7.19897C10.6985 7.41119 10.2237 7.88599 10.0115 8.48438H4.96875C3.03021 8.48438 1.45312 10.0615 1.45312 12C1.45312 13.9385 3.03021 15.5156 4.96875 15.5156ZM19.7344 2.85938H21.1406V4.96875C21.1406 5.35638 20.8251 5.67188 20.4375 5.67188C20.0499 5.67188 19.7344 5.35638 19.7344 4.96875V2.85938ZM10.1596 1.40625H13.8404L12.8976 4.26562H11.1022L10.1596 1.40625ZM15.5156 20.4375C15.5156 21.217 15.2618 21.9868 14.8116 22.5938H9.18842C8.73816 21.9868 8.48438 21.217 8.48438 20.4375C8.48438 18.499 10.0615 16.9219 12 16.9219C13.9385 16.9219 15.5156 18.499 15.5156 20.4375ZM14.1094 14.8125C14.1094 15.2001 13.7939 15.5156 13.4062 15.5156H10.5938C10.2061 15.5156 9.89062 15.2001 9.89062 14.8125C9.89062 14.4249 10.2061 14.1094 10.5938 14.1094H13.4062C13.7939 14.1094 14.1094 14.4249 14.1094 14.8125ZM12 8.48438C12.3876 8.48438 12.7031 8.79987 12.7031 9.1875C12.7031 9.57513 12.3876 9.89062 12 9.89062C11.6124 9.89062 11.2969 9.57513 11.2969 9.1875C11.2969 8.79987 11.6124 8.48438 12 8.48438ZM4.96875 9.89062H10.0115C10.2237 10.489 10.6985 10.9638 11.2969 11.176V12.7031H10.5938C9.67712 12.7031 8.89563 13.2909 8.60522 14.1094H4.96875C3.80566 14.1094 2.85938 13.1631 2.85938 12C2.85938 10.8369 3.80566 9.89062 4.96875 9.89062Z" fill="#474646"/>
</g>
<defs>
<clipPath id="clip0_7_9526">
<rect width="24" height="24" fill="white"/>
</clipPath>
</defs>
</svg>
