<svg width="24" height="24" viewBox="0 0 24 24" fill="none" xmlns="http://www.w3.org/2000/svg">
<g clip-path="url(#clip0_7_9420)">
<path d="M9.77778 4.88892H4.44444C3.46244 4.88892 2.66667 5.6848 2.66667 6.66669V9.12047C1.04233 10.4236 0 12.4221 0 14.6667C0 18.594 3.18383 21.7778 7.11111 21.7778C8.2795 21.7778 9.37911 21.4907 10.3516 20.9914C9.842 20.2602 9.45633 19.4394 9.21417 18.5577C8.58506 18.8994 7.87567 19.1111 7.11111 19.1111C4.66033 19.1111 2.66667 17.1175 2.66667 14.6667C2.66667 12.2822 4.55833 10.3455 6.91772 10.2417L6.93339 10.2222H10.2923L10.2997 10.2144C10.9991 10.1736 11.5556 9.59875 11.5556 8.88892V6.66669C11.5556 5.68486 10.7596 4.88892 9.77778 4.88892ZM7.11111 20C7.35656 20 7.55556 20.199 7.55556 20.4445C7.55556 20.6899 7.35656 20.8889 7.11111 20.8889C6.86567 20.8889 6.66667 20.6899 6.66667 20.4445C6.66667 20.199 6.86567 20 7.11111 20ZM7.11111 8.44447C6.62 8.44447 6.22222 8.04647 6.22222 7.55558C6.22222 7.06469 6.62 6.66669 7.11111 6.66669C7.602 6.66669 8 7.06469 8 7.55558C8 8.04647 7.602 8.44447 7.11111 8.44447Z" fill="#474646"/>
<path d="M16.8889 2.4259H15.1111C15.1039 2.4259 15.0972 2.42796 15.0901 2.42796C15.0983 2.35957 15.1111 2.29268 15.1111 2.22224C15.1111 1.24435 14.311 0.444458 13.3333 0.444458H11.5556C11.0219 0.444458 10.5467 0.687736 10.2203 1.06318C9.89367 0.687736 9.41861 0.444458 8.88478 0.444458H7.107C6.12933 0.444458 5.32922 1.24435 5.32922 2.22224C5.32922 3.20007 6.12933 4.00007 7.107 4.00007H8.88478C9.41867 4.00007 9.89367 3.75679 10.2203 3.38129C10.5467 3.75679 11.0219 4.00001 11.5556 4.00001H13.3333C13.3405 4.00001 13.347 3.99807 13.3542 3.99785C13.3461 4.06618 13.3333 4.13329 13.3333 4.20368C13.3333 5.18146 14.1332 5.98146 15.1111 5.98146H16.8889C17.8666 5.98146 18.6667 5.18146 18.6667 4.20368C18.6667 3.2259 17.8666 2.4259 16.8889 2.4259ZM8.88478 3.11112H7.107C6.617 3.11112 6.21811 2.71235 6.21811 2.22224C6.21811 1.73212 6.617 1.33335 7.107 1.33335H8.88478C9.375 1.33335 9.77367 1.73212 9.77367 2.22224C9.77367 2.7124 9.375 3.11112 8.88478 3.11112ZM13.3333 3.11112H11.5556C11.0653 3.11112 10.6667 2.71235 10.6667 2.22224C10.6667 1.73212 11.0653 1.33335 11.5556 1.33335H13.3333C13.8233 1.33335 14.2222 1.73212 14.2222 2.22224C14.2222 2.7124 13.8233 3.11112 13.3333 3.11112ZM16.8889 5.09262H15.1111C14.6209 5.09262 14.2222 4.69385 14.2222 4.20374C14.2222 3.71362 14.6209 3.31485 15.1111 3.31485H16.8889C17.3789 3.31485 17.7778 3.71362 17.7778 4.20374C17.7778 4.69385 17.3789 5.09262 16.8889 5.09262Z" fill="#474646"/>
<path d="M22.0376 11.5486C21.6954 12.336 20.9117 12.8888 20.0001 12.8888H19.5281C20.6173 13.6996 21.3334 14.9855 21.3334 16.4444C21.3334 18.8952 19.3397 20.8888 16.8889 20.8888C14.4382 20.8888 12.4445 18.8952 12.4445 16.4444C12.4445 14.06 14.3362 12.1232 16.6956 12.0195L16.7112 12H20.0702L20.0776 11.9921C20.7769 11.9513 21.3334 11.3765 21.3334 10.6666V8.4444C21.3334 7.46251 20.5374 6.66663 19.5556 6.66663H14.2223C13.2403 6.66663 12.4445 7.46251 12.4445 8.4444V10.8982C10.8202 12.2013 9.77783 14.1998 9.77783 16.4444C9.77783 20.3717 12.9617 23.5555 16.8889 23.5555C20.8162 23.5555 24.0001 20.3717 24.0001 16.4444C24.0001 14.5451 23.2509 12.8241 22.0376 11.5486ZM16.8889 8.4444C17.3798 8.4444 17.7778 8.8424 17.7778 9.33329C17.7778 9.82418 17.3798 10.2222 16.8889 10.2222C16.3978 10.2222 16.0001 9.82418 16.0001 9.33329C16.0001 8.8424 16.3978 8.4444 16.8889 8.4444ZM16.8889 22.6666C16.6435 22.6666 16.4445 22.4676 16.4445 22.2222C16.4445 21.9767 16.6435 21.7777 16.8889 21.7777C17.1344 21.7777 17.3334 21.9767 17.3334 22.2222C17.3334 22.4676 17.1344 22.6666 16.8889 22.6666Z" fill="#474646"/>
</g>
<defs>
<clipPath id="clip0_7_9420">
<rect width="24" height="24" fill="white"/>
</clipPath>
</defs>
</svg>
