<svg width="24" height="24" viewBox="0 0 24 24" fill="none" xmlns="http://www.w3.org/2000/svg">
<path d="M1.07448 9.23807C1.6646 9.23807 2.14298 8.75969 2.14298 8.16957C2.14298 7.57946 1.6646 7.10107 1.07448 7.10107C0.484365 7.10107 0.00598145 7.57946 0.00598145 8.16957C0.00598145 8.75969 0.484365 9.23807 1.07448 9.23807Z" fill="#474646"/>
<path d="M4.82592 7.77098C5.77502 7.77098 6.54442 7.00159 6.54442 6.05248C6.54442 5.10338 5.77502 4.33398 4.82592 4.33398C3.87682 4.33398 3.10742 5.10338 3.10742 6.05248C3.10742 7.00159 3.87682 7.77098 4.82592 7.77098Z" fill="#474646"/>
<path d="M4.28149 3.78953C4.72138 3.78953 5.07799 3.43293 5.07799 2.99303C5.07799 2.55314 4.72138 2.19653 4.28149 2.19653C3.84159 2.19653 3.48499 2.55314 3.48499 2.99303C3.48499 3.43293 3.84159 3.78953 4.28149 3.78953Z" fill="#474646"/>
<path d="M23.994 13.042H23.28H22.654H1.34498H1.03148H0.00598145C0.859481 15.716 2.58598 17.994 4.84398 19.5605L2.60048 21.8035H4.38148L5.94198 20.243C7.73998 21.233 9.80198 21.8035 12.0005 21.8035C14.1905 21.8035 16.245 21.238 18.0385 20.2545L19.5875 21.8035H21.3685L19.138 19.573C21.4045 18.008 23.138 15.7235 23.994 13.042Z" fill="#474646"/>
<path d="M20.1845 3.61299C21.575 3.61299 22.703 4.74049 22.703 6.13149V10.4975H0.0379639V12.36H23.9625V10.707V10.4975V6.13149C23.9625 6.02849 23.9545 5.92749 23.947 5.82649C23.946 5.79599 23.945 5.77449 23.945 5.77449C23.7645 3.85649 22.1505 2.35449 20.1845 2.35449C18.0985 2.35449 16.407 4.04599 16.407 6.13199H17.6665C17.6665 4.74049 18.794 3.61299 20.1845 3.61299Z" fill="#474646"/>
</svg>
