<svg width="24" height="24" viewBox="0 0 24 24" fill="none" xmlns="http://www.w3.org/2000/svg">
<path d="M16.7515 3.71739C15.5424 2.6087 13.8455 2 12 2C10.1545 2 8.45758 2.6087 7.24849 3.71739C5.76364 5.06522 5 7.08696 5 9.6087C5 15.0652 11.1303 21.4783 11.4061 21.7391C11.5758 21.913 11.7879 22 12 22C12.2121 22 12.4455 21.913 12.5939 21.7391C12.8697 21.4783 19 15.0652 19 9.6087C19 7.08696 18.2364 5.06522 16.7515 3.71739ZM12 19.8478C11.4273 19.1957 10.5152 18.1087 9.62424 16.8043C7.71515 14.0217 6.69697 11.5435 6.69697 9.6087C6.69697 4.17391 10.7485 3.73913 12 3.73913C16.9212 3.73913 17.303 8.23913 17.303 9.6087C17.303 13.4348 13.5061 18.1522 12 19.8478ZM12 5.76087C10.1333 5.76087 8.62727 7.34783 8.62727 9.28261C8.62727 11.2174 10.1333 12.7826 12 12.7826C13.8667 12.7826 15.3727 11.1957 15.3727 9.26087C15.3727 7.32609 13.8667 5.76087 12 5.76087ZM12 11.2609C10.9606 11.2609 10.1121 10.3696 10.1121 9.26087C10.1121 8.15217 10.9606 7.26087 12 7.26087C13.0394 7.26087 13.8879 8.15217 13.8879 9.26087C13.8879 10.3696 13.0394 11.2609 12 11.2609Z" fill="#474646"/>
</svg>
