<svg width="147" height="31" viewBox="0 0 147 31" fill="none" xmlns="http://www.w3.org/2000/svg">
<g clip-path="url(#clip0_51_249)">
<path d="M26.8476 6.38696C21.5957 6.38696 17.3384 10.6442 17.3384 15.8961C17.3384 21.1481 26.8476 30.7727 26.8476 30.7727C26.8476 30.7727 36.3567 21.1481 36.3567 15.8961C36.3567 10.6442 32.0995 6.38696 26.8476 6.38696ZM26.8476 12.0579C27.3287 12.0501 27.8065 12.1381 28.2533 12.3168C28.7 12.4956 29.1067 12.7614 29.4497 13.0988C29.7927 13.4363 30.0651 13.8387 30.251 14.2824C30.437 14.7262 30.5327 15.2026 30.5327 15.6838C30.5327 16.1649 30.437 16.6413 30.251 17.0851C30.0651 17.5289 29.7927 17.9312 29.4497 18.2687C29.1067 18.6061 28.7 18.872 28.2533 19.0507C27.8065 19.2294 27.3287 19.3174 26.8476 19.3096C25.8961 19.2942 24.9889 18.9054 24.3215 18.2271C23.6541 17.5488 23.2801 16.6353 23.2801 15.6838C23.2801 14.7322 23.6541 13.8187 24.3215 13.1404C24.9889 12.4622 25.8961 12.0734 26.8476 12.0579Z" fill="#E50914"/>
<path d="M60.3931 13.147C60.3931 9.57991 58.8486 7.79682 55.7607 7.79682C53.781 7.79682 52.2041 8.51464 51.03 9.95027C50.7474 9.29736 50.2415 8.77618 49.5132 8.38386C48.7849 7.99155 47.8981 7.79682 46.8538 7.79682H37.6215V22.7383H42.5154V13.5384C43.0595 12.7557 43.8317 12.3643 44.8311 12.3643C45.9842 12.3643 46.5598 13.0497 46.5598 14.4195V22.7383H51.4538V13.6358C51.8671 12.7872 52.6069 12.3634 53.6721 12.3634C54.8901 12.3634 55.4991 13.0592 55.4991 14.4519V22.7383H60.3931V13.147ZM92.0306 23.1297C90.6818 23.1297 89.5182 22.6295 88.5398 21.6291C87.5833 20.6068 87.1041 19.1607 87.1041 17.2907V8.05741H91.9981V16.2465C91.9981 16.9423 92.1556 17.5026 92.4715 17.9265C92.7875 18.3503 93.26 18.5622 93.891 18.5622C94.7386 18.5622 95.5223 18.1164 96.2401 17.2239V8.05645H101.134V23.1287H92.0315L92.0306 23.1297ZM79.2988 7.79586C83.2793 7.79586 85.2695 9.86246 85.2695 13.9947V22.7383H80.3756V14.8433C80.3756 14.0386 80.1636 13.4239 79.7398 13C79.316 12.5762 78.7232 12.3643 77.9615 12.3643C77.1139 12.3643 76.3521 12.7013 75.6782 13.3761V22.7393H70.7843V7.79777H79.2998L79.2988 7.79586ZM67.872 8.05741H62.978V22.7383H67.872V8.05741ZM62.5551 3.00023C62.5551 3.91373 62.832 4.63727 63.3875 5.16991C63.943 5.70255 64.6542 5.96886 65.5238 5.96886C66.2855 5.96886 66.9375 5.69682 67.4816 5.15273C68.0256 4.60864 68.2977 3.89177 68.2977 2.99927C68.2977 2.19459 68.0256 1.53118 67.4816 1.00905C66.9375 0.486909 66.2855 0.226318 65.5238 0.226318C64.6761 0.226318 63.9688 0.482136 63.4037 0.992818C62.8386 1.5035 62.5561 2.17264 62.5561 2.99927L62.5551 3.00023ZM103.294 17.159C103.294 19.1597 103.658 20.6555 104.387 21.6454C105.116 22.6352 106.274 23.1297 107.862 23.1297C109.884 23.1297 111.526 22.5751 112.788 21.4659L111.32 17.7136C110.559 18.2796 109.83 18.5622 109.134 18.5622C108.504 18.5622 108.188 18.0181 108.188 16.9309V12.6249H112.266V8.05741H108.188V3.97864H103.294V17.159Z" fill="black"/>
<path d="M9.50918 24.9805C4.25727 24.9805 0 20.7233 0 15.4714C0 8.84013 5.71391 1.9865 15.1801 0.59668C13.6128 2.57545 12.6401 3.76863 10.856 6.05477C15.1534 7.00072 19.0184 10.7807 19.0184 15.4704C19.0184 20.7223 14.7611 24.9805 9.50918 24.9805ZM9.50918 19.3096C9.99028 19.3174 10.4681 19.2294 10.9149 19.0507C11.3616 18.872 11.7683 18.6061 12.1113 18.2687C12.4543 17.9312 12.7267 17.5288 12.9126 17.0851C13.0986 16.6413 13.1943 16.1649 13.1943 15.6837C13.1943 15.2026 13.0986 14.7262 12.9126 14.2824C12.7267 13.8386 12.4543 13.4363 12.1113 13.0988C11.7683 12.7614 11.3616 12.4955 10.9149 12.3168C10.4681 12.1381 9.99028 12.0501 9.50918 12.0579C8.55774 12.0733 7.65048 12.4621 6.9831 13.1404C6.31572 13.8187 5.9417 14.7322 5.9417 15.6837C5.9417 16.6353 6.31572 17.5488 6.9831 18.2271C7.65048 18.9054 8.55774 19.2942 9.50918 19.3096ZM137.868 23.1297C136.519 23.1297 135.355 22.6295 134.377 21.6291C133.421 20.6068 132.941 19.1607 132.941 17.2907V8.05741H137.835V16.2465C137.835 16.9423 137.993 17.5026 138.309 17.9265C138.625 18.3503 139.097 18.5622 139.728 18.5622C140.576 18.5622 141.36 18.1164 142.077 17.2239V8.05645H146.971V23.1287H137.869L137.868 23.1297ZM130.291 7.79586C131.313 7.79586 132.074 7.98009 132.574 8.35045L130.845 12.918C130.214 12.5485 129.617 12.3634 129.051 12.3634C128.246 12.3634 127.648 12.7118 127.256 13.4076V22.7383H122.362V7.79682H130.29L130.291 7.79586ZM113.971 19.6065C113.971 20.5419 114.281 21.3304 114.901 21.9718C115.52 22.6133 116.32 22.934 117.298 22.934C118.19 22.934 118.924 22.6075 119.501 21.9556C120.077 21.3036 120.364 20.52 120.364 19.6065C120.364 18.8018 120.066 18.0897 119.467 17.4692C118.869 16.8488 118.146 16.5395 117.297 16.5395C116.34 16.5395 115.547 16.8497 114.916 17.4692C114.285 18.0887 113.971 18.8018 113.971 19.6065Z" fill="#E50914"/>
</g>
<defs>
<clipPath id="clip0_51_249">
<rect width="147" height="31" fill="white"/>
</clipPath>
</defs>
</svg>
