<svg width="24" height="24" viewBox="0 0 24 24" fill="none" xmlns="http://www.w3.org/2000/svg">
<path d="M20.3478 6.13044H3.6522C2.71306 6.13044 1.95654 5.37392 1.95654 4.43479C1.95654 3.49566 2.71306 2.73914 3.6522 2.73914H20.3478C21.287 2.73914 22.0435 3.49566 22.0435 4.43479C22.0435 5.37392 21.287 6.13044 20.3478 6.13044ZM22.0435 12C22.0435 11.0609 21.287 10.3044 20.3478 10.3044H3.6522C2.71306 10.3044 1.95654 11.0609 1.95654 12C1.95654 12.9391 2.71306 13.6957 3.6522 13.6957H20.3478C21.287 13.6957 22.0435 12.9391 22.0435 12ZM22.0435 19.5652C22.0435 18.6261 21.287 17.8696 20.3478 17.8696H3.6522C2.71306 17.8696 1.95654 18.6261 1.95654 19.5652C1.95654 20.5044 2.71306 21.2609 3.6522 21.2609H20.3478C21.287 21.2609 22.0435 20.5044 22.0435 19.5652Z" fill="#474646"/>
</svg>
