<svg width="20" height="20" viewBox="0 0 20 20" fill="none" xmlns="http://www.w3.org/2000/svg">
<path d="M19.1304 1.30435H0.869565C0.391304 1.30435 0 1.69566 0 2.17392V13.2826C0 13.7609 0.391304 14.1304 0.869565 14.1304H11.087V17.8261C11.087 18.1957 11.3696 18.5217 11.6957 18.6522C11.8043 18.6957 11.913 18.6957 12.0217 18.6957C12.2826 18.6957 12.5217 18.587 12.6957 18.3913L16.3043 14.1304H19.1304C19.6087 14.1304 20 13.7609 20 13.2826V2.17392C20 1.69566 19.6087 1.30435 19.1304 1.30435ZM18.2609 12.3913H15.913C15.6522 12.3913 15.3696 12.5217 15.1957 12.6957L12.8261 15.4565V13.2826C12.8261 12.8044 12.5217 12.3913 12.0435 12.3913H1.73913V3.04348H18.2609V12.3913ZM4.04348 6.08696C4.04348 5.6087 4.43478 5.2174 4.91304 5.2174H11.2174C11.6957 5.2174 12.087 5.6087 12.087 6.08696C12.087 6.56522 11.6957 6.95653 11.2174 6.95653H4.91304C4.43478 6.95653 4.04348 6.56522 4.04348 6.08696ZM13.587 6.76087C13.4348 6.6087 13.3261 6.36957 13.3261 6.15218C13.3261 5.91305 13.413 5.69566 13.587 5.54348C13.7609 5.36957 13.9783 5.28261 14.1957 5.28261C14.4348 5.28261 14.6522 5.36957 14.8043 5.54348C14.9565 5.69566 15.0652 5.93479 15.0652 6.15218C15.0652 6.39131 14.9783 6.6087 14.8043 6.76087C14.6304 6.93479 14.413 7.02174 14.1957 7.02174C13.9783 7 13.7609 6.91305 13.587 6.76087Z" fill="#474646"/>
</svg>
