<svg width="24" height="24" viewBox="0 0 24 24" fill="none" xmlns="http://www.w3.org/2000/svg">
<g clip-path="url(#clip0_7_9473)">
<path d="M9.5903 20.4062H5.43774V23.9999H9.5903V20.4062Z" fill="#474646"/>
<path d="M17.9644 12.4533C17.3372 11.7752 16.9917 10.893 16.9917 9.96915V7.1178H15.9808V9.96915C15.9808 10.893 15.6353 11.7751 15.008 12.4533C14.6223 12.8703 14.4099 13.4127 14.4099 13.9807V14.5394H18.5625V13.9807C18.5626 13.4128 18.3502 12.8703 17.9644 12.4533Z" fill="#474646"/>
<path d="M8.99207 12.4533C8.36479 11.7752 8.01932 10.893 8.01932 9.96915V7.1178H7.00837V9.96915C7.00837 10.893 6.6629 11.7752 6.03558 12.4533C5.64994 12.8703 5.4375 13.4127 5.4375 13.9807V14.5394H9.5901V13.9807C9.59015 13.4127 9.37776 12.8703 8.99207 12.4533Z" fill="#474646"/>
<path d="M9.5903 15.9484H5.43774V18.9971H9.5903V15.9484Z" fill="#474646"/>
<path d="M20.4831 0H3.51701C1.81536 0 0.430908 1.3844 0.430908 3.0861V20.9139C0.430908 22.6156 1.81531 24 3.51701 24H4.02842V13.9806C4.02842 13.0568 4.37389 12.1746 5.00121 11.4965C5.3869 11.0795 5.59929 10.5371 5.59929 9.96912V6.41324C5.59929 6.02413 5.91476 5.70871 6.30382 5.70871H8.72378C9.11289 5.70871 9.42831 6.02413 9.42831 6.41324V9.96912C9.42831 10.5371 9.6407 11.0795 10.0264 11.4965C10.6537 12.1746 10.9991 13.0569 10.9991 13.9806V23.9999H13.0009V13.9806C13.0009 13.0568 13.3464 12.1746 13.9737 11.4965C14.3594 11.0795 14.5718 10.5371 14.5718 9.96912V6.41324C14.5718 6.02413 14.8872 5.70871 15.2763 5.70871H17.6963C18.0854 5.70871 18.4008 6.02413 18.4008 6.41324V9.96912C18.4008 10.5371 18.6132 11.0795 18.9989 11.4965C19.6262 12.1746 19.9717 13.0569 19.9717 13.9806V23.9999H20.4831C22.1847 23.9999 23.5692 22.6155 23.5692 20.9138V3.0861C23.5692 1.3844 22.1848 0 20.4831 0Z" fill="#474646"/>
<path d="M18.5628 20.4062H14.4103V23.9999H18.5628V20.4062Z" fill="#474646"/>
<path d="M18.5628 15.9484H14.4103V18.9971H18.5628V15.9484Z" fill="#474646"/>
</g>
<defs>
<clipPath id="clip0_7_9473">
<rect width="24" height="24" fill="white"/>
</clipPath>
</defs>
</svg>
