<svg width="24" height="24" viewBox="0 0 24 24" fill="none" xmlns="http://www.w3.org/2000/svg">
<g clip-path="url(#clip0_7_9502)">
<path d="M20.8441 0H3.1554C1.41223 0 0 1.41253 0 3.1551V20.8448C0 22.5875 1.41223 24 3.1554 24H20.8441C22.5872 24 24 22.5875 24 20.8448V3.1551C24 1.41253 22.5872 0 20.8441 0ZM21.7997 19.5C21.7997 20.7683 20.7677 21.8 19.4996 21.8H4.49987C3.23181 21.8 2.1997 20.7683 2.1997 19.5V4.49997C2.1997 3.23161 3.23176 2.20005 4.49987 2.20005H19.4996C20.7676 2.20005 21.7997 3.23161 21.7997 4.49997V19.5Z" fill="#474646"/>
<path d="M19.4996 3.79993H4.49991C4.11392 3.79993 3.79993 4.11402 3.79993 4.49991V19.4999C3.79993 19.8859 4.11392 20.2 4.49991 20.2H19.4996C19.8855 20.2 20.2001 19.8859 20.2001 19.4999V4.49991C20.2001 4.11402 19.8855 3.79993 19.4996 3.79993ZM18.0045 12.7999H16.7529C16.6282 13.5456 16.3327 14.2327 15.9059 14.8211L16.7975 15.7128C17.1099 16.0254 17.1099 16.5316 16.7975 16.8441C16.6412 17.0004 16.4363 17.0785 16.2318 17.0785C16.027 17.0785 15.8224 17.0004 15.6663 16.8441L14.7675 15.9457C14.1795 16.3598 13.4951 16.643 12.7546 16.7597V18.0499C12.7546 18.4917 12.3968 18.8499 11.9543 18.8499C11.5121 18.8499 11.1544 18.4917 11.1544 18.0499V16.746C10.4264 16.6163 9.75604 16.3238 9.17943 15.9062L8.24196 16.8437C8.08566 17 7.88072 17.0781 7.67618 17.0781C7.47178 17.0781 7.26679 17 7.11069 16.8437C6.79823 16.5312 6.79823 16.025 7.11069 15.7124L8.05426 14.7687C7.64815 14.1921 7.36839 13.5234 7.24652 12.7999H5.90454C5.46211 12.7999 5.10425 12.4417 5.10425 11.9999C5.10425 11.5581 5.46211 11.1999 5.90454 11.1999H7.24652C7.36839 10.4768 7.64815 9.80856 8.05426 9.23199L7.11069 8.28817C6.79823 7.97571 6.79823 7.46945 7.11069 7.15694C7.42289 6.84449 7.92946 6.84449 8.24196 7.15694L9.17848 8.09406C9.75604 7.67647 10.4263 7.38394 11.1544 7.25422V5.94995C11.1544 5.50817 11.5121 5.14996 11.9543 5.14996C12.3968 5.14996 12.7546 5.50817 12.7546 5.94995V7.24061C13.495 7.35736 14.1795 7.64055 14.7683 8.05511L15.6671 7.15625C15.9794 6.84379 16.4855 6.84379 16.7983 7.15625C17.1107 7.4687 17.1107 7.97497 16.7983 8.28752L15.9058 9.17968C16.3326 9.76792 16.6273 10.4547 16.7529 11.2H18.0044C18.4465 11.2 18.8044 11.5582 18.8044 12C18.8044 12.4417 18.4466 12.7999 18.0045 12.7999Z" fill="#474646"/>
<path d="M11.9998 8.77539C10.2219 8.77539 8.7749 10.2223 8.7749 12.0004C8.7749 13.7785 10.2219 15.225 11.9998 15.225C13.7781 15.225 15.2249 13.7785 15.2249 12.0004C15.2249 10.2223 13.7781 8.77539 11.9998 8.77539ZM11.9998 13.2813C11.292 13.2813 10.7185 12.7079 10.7185 12.0004C10.7185 11.2926 11.292 10.7192 11.9998 10.7192C12.7075 10.7192 13.281 11.2926 13.281 12.0004C13.281 12.7079 12.7075 13.2813 11.9998 13.2813Z" fill="#474646"/>
</g>
<defs>
<clipPath id="clip0_7_9502">
<rect width="24" height="24" fill="white"/>
</clipPath>
</defs>
</svg>
