<svg width="24" height="24" viewBox="0 0 24 24" fill="none" xmlns="http://www.w3.org/2000/svg">
<path d="M14.61 15.3787C14.3627 14.8916 13.8631 14.5849 13.3169 14.5849H9.07589V13.6177H12.7258C13.3274 13.6177 13.8147 13.1302 13.8147 12.5289C13.8147 11.9276 13.3274 11.4401 12.7258 11.4401H9.07589V8.15949C9.07589 6.95679 8.10076 5.98181 6.89791 5.98181C5.69566 5.98181 4.72058 6.95679 4.72058 8.15949V15.3051C4.72058 16.5077 5.69571 17.4827 6.89791 17.4827C7.04968 17.4827 12.4263 17.4883 12.4263 17.4883L15.3344 23.2059C15.5902 23.7095 16.1003 24 16.6294 24C16.8513 24 17.0763 23.9493 17.2865 23.8417C18.0017 23.4787 18.2864 22.6041 17.922 21.8895L14.61 15.3787Z" fill="#474646"/>
<path d="M6.89786 4.94484C8.26239 4.94484 9.37001 3.83778 9.37001 2.4724C9.37001 1.10657 8.26239 0 6.89786 0C5.53223 0 4.42542 1.10657 4.42542 2.47235C4.42542 3.83778 5.53223 4.94484 6.89786 4.94484Z" fill="#474646"/>
<path d="M10.4089 18.8579H4.61824C3.68627 18.8579 2.9303 19.6138 2.9303 20.5459C2.9303 21.4783 3.68627 22.234 4.61824 22.234H10.4089C11.3408 22.234 12.0969 21.4783 12.0969 20.5459C12.0969 19.6138 11.3408 18.8579 10.4089 18.8579Z" fill="#474646"/>
<path d="M16.3548 13.8111C17.9305 13.1891 17.5676 10.6604 17.5157 10.1905C17.4605 9.73005 16.8591 7.45704 17.4021 6.72595C15.8055 7.2874 16.1828 9.71934 16.2609 10.5016C16.3616 11.5105 16.9395 12.8945 16.3548 13.8111Z" fill="#474646"/>
<path d="M19.8365 8.78427C21.4122 8.16229 21.0493 5.63356 20.9975 5.16365C20.9422 4.7032 20.3408 2.43018 20.8838 1.6991C19.2873 2.26054 19.6646 4.69248 19.7427 5.47479C19.8433 6.48361 20.4212 7.86762 19.8365 8.78427Z" fill="#474646"/>
<path d="M20.8838 12C19.2873 12.5614 19.6646 14.9934 19.7427 15.7757C19.8433 16.7845 20.4212 18.1685 19.8366 19.0852C21.4123 18.4632 21.0494 15.9344 20.9976 15.4646C20.9423 15.0041 20.3408 12.7311 20.8838 12Z" fill="#474646"/>
</svg>
