<svg width="24" height="24" viewBox="0 0 24 24" fill="none" xmlns="http://www.w3.org/2000/svg">
<path d="M12.313 16.4348C12.313 17.0087 11.8435 17.4782 11.2696 17.4782H1.04348C0.469565 17.4782 0 17.0087 0 16.4348C0 15.8608 0.469565 15.3913 1.04348 15.3913H11.2696C11.8435 15.3913 12.313 15.8608 12.313 16.4348ZM22.9565 15.3913H22.0696C21.4957 15.3913 21.0261 15.8608 21.0261 16.4348C21.0261 17.0087 21.4957 17.4782 22.0696 17.4782H22.9565C23.5304 17.4782 24 17.0087 24 16.4348C24 15.8608 23.5304 15.3913 22.9565 15.3913ZM3.73043 7.5391C3.73043 5.81736 5.13913 4.43475 6.86087 4.43475C8.58261 4.43475 9.9913 5.84345 9.9913 7.5391C9.9913 9.23475 8.58261 10.6434 6.86087 10.6434C5.13913 10.6434 3.73043 9.26084 3.73043 7.5391ZM5.81739 7.5391C5.81739 8.11301 6.28696 8.55649 6.86087 8.55649C7.43478 8.55649 7.90435 8.08693 7.90435 7.5391C7.90435 6.99128 7.43478 6.52171 6.86087 6.52171C6.28696 6.52171 5.81739 6.99128 5.81739 7.5391ZM19.6696 16.4608C19.6696 18.1826 18.2609 19.5652 16.5391 19.5652C14.8174 19.5652 13.4087 18.1565 13.4087 16.4608C13.4087 14.7652 14.8174 13.3565 16.5391 13.3565C18.2609 13.3304 19.6696 14.7391 19.6696 16.4608ZM17.5826 16.4608C17.5826 15.8869 17.113 15.4434 16.5391 15.4434C15.9652 15.4434 15.4957 15.913 15.4957 16.4608C15.4957 17.0087 15.9652 17.4782 16.5391 17.4782C17.113 17.4782 17.5826 17.0087 17.5826 16.4608ZM1.04348 8.60867H1.64348C2.21739 8.60867 2.68696 8.1391 2.68696 7.56519C2.68696 6.99128 2.21739 6.52171 1.64348 6.52171H1.04348C0.469565 6.52171 0 6.99128 0 7.56519C0 8.1391 0.469565 8.60867 1.04348 8.60867ZM24 7.56519C24 6.99128 23.5304 6.52171 22.9565 6.52171H12.3391C11.7652 6.52171 11.2957 6.99128 11.2957 7.56519C11.2957 8.1391 11.7652 8.60867 12.3391 8.60867H22.9565C23.5304 8.60867 24 8.1391 24 7.56519Z" fill="#474646"/>
</svg>
