<svg width="24" height="24" viewBox="0 0 24 24" fill="none" xmlns="http://www.w3.org/2000/svg">
<path d="M14.8119 2C10.834 2 7.60047 5.20455 7.60047 9.11364C7.60047 10.7727 8.18203 12.2727 9.1358 13.5L2.2966 20.2727C1.90113 20.6818 1.90113 21.3182 2.2966 21.7045C2.50596 21.9091 2.76185 22 3.01774 22C3.29689 22 3.55278 21.9091 3.76214 21.7045L10.6013 14.9318C11.7877 15.7727 13.23 16.25 14.7886 16.25C18.7665 16.25 22 13.0455 22 9.13636C22 5.22727 18.7898 2 14.8119 2ZM14.8119 14.4545C11.8575 14.4545 9.46147 12.0682 9.46147 9.13636C9.46147 6.20455 11.8575 3.81818 14.8119 3.81818C17.7662 3.81818 20.1623 6.20455 20.1623 9.13636C20.1623 12.0682 17.7662 14.4545 14.8119 14.4545ZM18.4176 9.22727C18.371 9.61364 18.0221 9.90909 17.6266 9.90909C17.5801 9.90909 17.5568 9.90909 17.5103 9.90909C17.0683 9.84091 16.7659 9.45455 16.8124 9.02273C16.9753 7.84091 15.6261 7.22727 15.5563 7.20455C15.1608 7.02273 14.9747 6.54545 15.1608 6.15909C15.3469 5.77273 15.8122 5.59091 16.2309 5.75C16.3239 5.77273 18.7432 6.86364 18.4176 9.22727ZM16.7194 10.9545C16.8822 11.1136 16.9985 11.3636 16.9985 11.5909C16.9985 11.8409 16.9055 12.0682 16.7194 12.2273C16.5566 12.3864 16.3007 12.5 16.068 12.5C15.8354 12.5 15.5795 12.4091 15.4167 12.2273C15.2539 12.0682 15.1375 11.8182 15.1375 11.5909C15.1375 11.3636 15.2306 11.1136 15.4167 10.9545C15.5795 10.7955 15.8354 10.6818 16.068 10.6818C16.3007 10.6818 16.5333 10.7727 16.7194 10.9545Z" fill="#474646"/>
</svg>
