<svg width="24" height="24" viewBox="0 0 24 24" fill="none" xmlns="http://www.w3.org/2000/svg">
<g clip-path="url(#clip0_7_9430)">
<path d="M11.5358 0.229828C11.3964 0.0830623 11.2028 0 11.0004 0H1.83091C1.6285 0 1.43491 0.0830623 1.2955 0.229828C1.15609 0.376546 1.08302 0.574124 1.09338 0.776295L1.18417 2.5462H11.6472L11.738 0.776295C11.7483 0.574171 11.6752 0.376593 11.5358 0.229828Z" fill="#474646"/>
<path d="M1.25989 3.95886L2.03825 19.1999H10.7931L11.5714 3.95886H1.25989Z" fill="#474646"/>
<path d="M2.08059 20.6127L2.07703 21.567C2.07703 22.9086 3.16846 24 4.51007 24H8.31392C9.65553 24 10.747 22.9086 10.747 21.567L10.7505 20.6127H2.08059Z" fill="#474646"/>
<path d="M13.2067 7.88562V23.2614C13.2067 23.6692 13.5373 23.9999 13.9452 23.9999H22.169C22.5769 23.9999 22.9075 23.6693 22.9075 23.2614V7.88562H13.2067ZM20.251 20.4722C20.251 20.8801 20.0141 21.1786 19.6062 21.1786H16.5082C16.1003 21.1786 15.8633 20.8801 15.8633 20.4722V9.93635H15.8633C15.8633 9.52849 16.1003 9.22999 16.5082 9.22999H19.6062C20.014 9.22999 20.251 9.52849 20.251 9.93635V20.4722Z" fill="#474646"/>
<path d="M22.1691 3.12512H13.9452C13.5373 3.12512 13.2067 3.45573 13.2067 3.86364V6.47302H22.9075V3.86364C22.9076 3.45578 22.5769 3.12512 22.1691 3.12512Z" fill="#474646"/>
<path d="M18.8679 10.6428H17.2468V19.7661H18.8679V10.6428Z" fill="#474646"/>
</g>
<defs>
<clipPath id="clip0_7_9430">
<rect width="24" height="24" fill="white"/>
</clipPath>
</defs>
</svg>
