<svg width="24" height="24" viewBox="0 0 24 24" fill="none" xmlns="http://www.w3.org/2000/svg">
<path d="M18.8571 8.6571H5.14294C5.14294 6.7636 6.67794 5.2285 8.57154 5.2285H10.2858V0H13.7144V5.2286H15.343V5.2308C15.3716 5.2301 15.3999 5.2286 15.4287 5.2286C17.3222 5.2286 18.8571 6.7636 18.8571 8.6571ZM12 10.2857C11.5266 10.2857 11.1429 10.6695 11.1429 11.1429C11.1429 11.6163 11.5266 12 12 12C12.4734 12 12.8571 11.6163 12.8571 11.1429C12.8571 10.6695 12.4734 10.2857 12 10.2857ZM12 13.7143C11.5266 13.7143 11.1429 14.098 11.1429 14.5714C11.1429 15.0448 11.5266 15.4286 12 15.4286C12.4734 15.4286 12.8571 15.0448 12.8571 14.5714C12.8571 14.098 12.4734 13.7143 12 13.7143ZM12 18C11.5266 18 11.1429 18.3837 11.1429 18.8571C11.1429 19.3305 11.5266 19.7142 12 19.7142C12.4734 19.7142 12.8571 19.3305 12.8571 18.8571C12.8571 18.3837 12.4734 18 12 18ZM12 22.2857C11.5266 22.2857 11.1429 22.6694 11.1429 23.1428C11.1429 23.6162 11.5266 24 12 24C12.4734 24 12.8571 23.6163 12.8571 23.1429C12.8571 22.6695 12.4734 22.2857 12 22.2857ZM15.2521 10.3045C14.7888 10.4021 14.4924 10.8566 14.59 11.3198C14.6876 11.7831 15.1421 12.0796 15.6055 11.9819C16.0686 11.8843 16.365 11.4298 16.2675 10.9665C16.1699 10.5034 15.7153 10.2069 15.2521 10.3045ZM15.9588 13.6594C15.4955 13.757 15.199 14.2117 15.2968 14.6747C15.3943 15.1381 15.8489 15.4345 16.3122 15.337C16.7753 15.2393 17.0717 14.7848 16.9742 14.3216C16.8765 13.8582 16.422 13.5618 15.9588 13.6594ZM16.8421 17.8532C16.3789 17.9508 16.0824 18.4053 16.18 18.8686C16.2777 19.3318 16.7322 19.6282 17.1954 19.5306C17.6587 19.4329 17.9552 18.9785 17.8575 18.5153C17.76 18.0521 17.3054 17.7557 16.8421 17.8532ZM17.7255 22.0469C17.2622 22.1445 16.9657 22.599 17.0634 23.0622C17.161 23.5255 17.6155 23.8219 18.0788 23.7243C18.5421 23.6267 18.8385 23.1722 18.7409 22.709C18.6434 22.2456 18.1887 21.9491 17.7255 22.0469ZM7.73254 10.9666C7.63494 11.4299 7.93144 11.8844 8.39464 11.982C8.85784 12.0797 9.31244 11.7832 9.41014 11.3199C9.50764 10.8567 9.21124 10.4021 8.74804 10.3046C8.28474 10.2069 7.83004 10.5034 7.73254 10.9666ZM7.02584 14.3216C6.92824 14.7848 7.22474 15.2394 7.68794 15.337C8.15114 15.4345 8.60574 15.1381 8.70334 14.6747C8.80104 14.2117 8.50454 13.7569 8.04134 13.6594C7.57804 13.5618 7.12344 13.8582 7.02584 14.3216ZM6.14254 18.5153C6.04494 18.9785 6.34144 19.433 6.80464 19.5306C7.26784 19.6282 7.72244 19.3318 7.82004 18.8686C7.91764 18.4053 7.62114 17.9507 7.15794 17.8532C6.69464 17.7557 6.24014 18.0521 6.14254 18.5153ZM5.25914 22.709C5.16154 23.1723 5.45804 23.6268 5.92124 23.7243C6.38454 23.8219 6.83904 23.5255 6.93664 23.0622C7.03424 22.599 6.73784 22.1444 6.27454 22.0469C5.81134 21.9491 5.35674 22.2456 5.25914 22.709Z" fill="#474646"/>
</svg>
