<svg width="24" height="24" viewBox="0 0 24 24" fill="none" xmlns="http://www.w3.org/2000/svg">
<g clip-path="url(#clip0_7_9449)">
<path d="M14.3712 6.98267H9.62875C8.40217 6.98267 7.4043 7.98054 7.4043 9.20712V10.4877H16.5957V9.20712C16.5957 7.98063 15.5978 6.98267 14.3712 6.98267Z" fill="#474646"/>
<path d="M19.7311 0.230713H4.26873C2.72823 0.230713 1.47498 1.48401 1.47498 3.02451V10.6004C1.77858 10.5274 2.0949 10.4877 2.42058 10.4877H5.78082V9.20709C5.78082 7.08534 7.50699 5.35917 9.62874 5.35917H14.3712C16.493 5.35917 18.2191 7.08534 18.2191 9.20709V10.4877H21.5794C21.9051 10.4877 22.2215 10.5274 22.525 10.6004V3.02451C22.5249 1.48401 21.2716 0.230713 19.7311 0.230713Z" fill="#474646"/>
<path d="M21.5794 12.1112H17.4075H6.59255H2.42062C1.08586 12.1112 0 13.1971 0 14.5318V19.3708H24V14.5318C24 13.1971 22.9141 12.1112 21.5794 12.1112Z" fill="#474646"/>
<path d="M1.47498 20.9943V22.9575C1.47498 23.4057 1.8384 23.7692 2.28671 23.7692C2.73502 23.7692 3.09844 23.4058 3.09844 22.9575V20.9943H1.47498Z" fill="#474646"/>
<path d="M20.9015 20.9943V22.9575C20.9015 23.4057 21.2649 23.7692 21.7132 23.7692C22.1615 23.7692 22.525 23.4058 22.525 22.9575V20.9943H20.9015Z" fill="#474646"/>
</g>
<defs>
<clipPath id="clip0_7_9449">
<rect width="24" height="24" fill="white"/>
</clipPath>
</defs>
</svg>
