<svg width="24" height="24" viewBox="0 0 24 24" fill="none" xmlns="http://www.w3.org/2000/svg">
<path d="M21.8604 14.5559C22.0029 13.8995 22.0913 13.2009 22.0913 12.5023C22.0913 7.18084 17.5773 2.87676 12.0073 2.87676C11.2755 2.87676 10.5485 2.95646 9.85598 3.09712C8.92274 2.4079 7.76355 2 6.50122 2C3.46572 2 1 4.35365 1 7.25117C1 8.45613 1.42733 9.56263 2.14445 10.4488C2.00201 11.1052 1.9136 11.8038 1.9136 12.5023C1.9136 17.8238 6.42754 22.1279 11.9975 22.1279C12.7294 22.1279 13.4563 22.0482 14.1489 21.9076C15.0821 22.5921 16.2413 23 17.4987 23C20.5342 23 23 20.6463 23 17.7488C23.0049 16.5486 22.5775 15.4421 21.8604 14.5559ZM12.3021 18.8459C9.07991 18.8459 6.38333 17.4769 6.38333 15.7984C6.38333 15.0482 6.8254 14.3637 7.83232 14.3637C9.3648 14.3637 9.50724 16.4689 12.1596 16.4689C13.4219 16.4689 14.2373 15.9344 14.2373 15.2358C14.2373 14.359 13.4514 14.223 12.1743 13.923C9.10447 13.2009 6.38825 12.8915 6.38825 9.83456C6.38825 7.05894 9.26656 6.03215 11.747 6.03215C14.4534 6.03215 17.1893 7.05894 17.1893 8.6296C17.1893 9.42197 16.6294 10.1206 15.701 10.1206C14.311 10.1206 14.2668 8.5499 12.0172 8.5499C10.7548 8.5499 9.95421 8.8781 9.95421 9.60482C9.95421 10.5332 10.9759 10.6269 13.3483 11.152C15.3818 11.5881 17.8033 12.4086 17.8033 14.7904C17.8033 17.5613 14.9986 18.8459 12.3021 18.8459Z" fill="#474646"/>
</svg>
