<svg width="24" height="24" viewBox="0 0 24 24" fill="none" xmlns="http://www.w3.org/2000/svg">
<path d="M9.58469 16.9755L6.77275 19.8327C6.5531 20.0558 6.19679 20.0557 5.97727 19.8327L3.16541 16.9755C2.81138 16.6158 3.06352 16 3.56316 16H5.24999V4.57143C5.24999 4.25582 5.50182 4 5.81249 4H6.93749C7.24817 4 7.49999 4.25582 7.49999 4.57143V16H9.18693C9.68759 16 9.93797 16.6166 9.58469 16.9755ZM11.4375 6.28571H20.4375C20.7482 6.28571 21 6.02989 21 5.71428V4.57143C21 4.25582 20.7482 4 20.4375 4H11.4375C11.1268 4 10.875 4.25582 10.875 4.57143V5.71428C10.875 6.02989 11.1268 6.28571 11.4375 6.28571ZM10.875 10.2857V9.14285C10.875 8.82725 11.1268 8.57142 11.4375 8.57142H18.1875C18.4982 8.57142 18.75 8.82725 18.75 9.14285V10.2857C18.75 10.6013 18.4982 10.8571 18.1875 10.8571H11.4375C11.1268 10.8571 10.875 10.6013 10.875 10.2857ZM10.875 19.4286V18.2857C10.875 17.9701 11.1268 17.7143 11.4375 17.7143H13.6875C13.9982 17.7143 14.25 17.9701 14.25 18.2857V19.4286C14.25 19.7442 13.9982 20 13.6875 20H11.4375C11.1268 20 10.875 19.7442 10.875 19.4286ZM10.875 14.8571V13.7143C10.875 13.3987 11.1268 13.1428 11.4375 13.1428H15.9375C16.2482 13.1428 16.5 13.3987 16.5 13.7143V14.8571C16.5 15.1727 16.2482 15.4286 15.9375 15.4286H11.4375C11.1268 15.4286 10.875 15.1727 10.875 14.8571Z" fill="#474646"/>
</svg>
