<svg width="24" height="24" viewBox="0 0 24 24" fill="none" xmlns="http://www.w3.org/2000/svg">
<path d="M12.2111 14.1217C13.6826 13.5408 13.3437 11.1794 13.2952 10.7406C13.2436 10.3106 12.682 8.18789 13.1891 7.50513C11.6982 8.02944 12.0505 10.3005 12.1234 11.0311C12.2174 11.9732 12.7571 13.2657 12.2111 14.1217Z" fill="#474646"/>
<path d="M17.7725 15.0222C19.244 14.4414 18.9051 12.0799 18.8566 11.6411C18.8051 11.2111 18.2434 9.0884 18.7505 8.40564C17.2595 8.92995 17.6119 11.201 17.6848 11.9317C17.7788 12.8738 18.3185 14.1662 17.7725 15.0222Z" fill="#474646"/>
<path d="M12 15.4472C11.4178 15.4472 10.1577 15.4597 8.66739 15.5463V10.5136C8.66739 9.09849 7.51598 7.94727 6.10003 7.94727C5.65796 7.94727 5.24839 8.06994 4.88439 8.26721C5.33072 8.61882 5.69389 9.06334 5.94466 9.5785C5.99719 9.56993 6.04545 9.54722 6.10003 9.54722C6.633 9.54722 7.06725 9.98077 7.06725 10.5136V11.7821L5.1336 12.0925V11.2136C5.1336 9.79828 3.98287 8.64726 2.56741 8.64726C1.15191 8.64731 0 9.79833 0 11.2137V12.714C0 13.1558 0.358661 13.514 0.800343 13.514C1.24242 13.514 1.60024 13.1558 1.60024 12.714V11.2137C1.60024 10.6808 2.03449 10.2474 2.56746 10.2474C3.10009 10.2474 3.53384 10.6809 3.53384 11.2137V16.176C1.54234 16.6116 0 17.3057 0 18.4139C0 21.2378 9.99699 21.3807 12 21.3807C14.0046 21.3807 24 21.2378 24 18.4139C24 15.5901 14.0047 15.4472 12 15.4472ZM5.1336 13.713L7.06725 13.4023V15.6643C6.42594 15.7226 5.7728 15.796 5.1336 15.8891V13.713ZM12 19.7625C5.42481 19.7625 2.2927 19.1587 2.2927 18.4139C2.2927 17.6692 5.48169 17.0654 12 17.0654C18.6288 17.0654 21.7073 17.6692 21.7073 18.4139C21.7073 19.1587 18.2874 19.7625 12 19.7625Z" fill="#474646"/>
<path d="M15.3528 9.23582C16.8243 8.65497 16.4854 6.2935 16.4369 5.8547C16.3853 5.42472 15.8237 3.30203 16.3308 2.61926C14.8399 3.14357 15.1922 5.41464 15.2651 6.14523C15.3591 7.08733 15.8988 8.37982 15.3528 9.23582Z" fill="#474646"/>
</svg>
