<svg width="24" height="24" viewBox="0 0 24 24" fill="none" xmlns="http://www.w3.org/2000/svg">
<g clip-path="url(#clip0_7_9404)">
<path d="M7.15929 4.19531C7.82679 3.75042 8.22508 2.91225 8.22508 2.11013C8.22508 1.30801 7.82679 0.563632 7.15929 0.118649C6.83445 -0.0976791 6.39841 -0.00974179 6.18415 0.313648C5.96848 0.637085 6.05642 1.07387 6.37915 1.28879C6.65866 1.47488 6.81865 1.77427 6.81865 2.11013C6.81865 2.44599 6.65866 2.83913 6.37915 3.02522C5.71165 3.47016 5.31335 4.21458 5.31335 5.01665C5.31335 5.81873 5.71165 6.56315 6.37915 7.00814C6.70816 7.22629 7.14237 7.13146 7.35429 6.81314C7.56996 6.4897 7.48268 6.05362 7.15924 5.838C6.87973 5.6519 6.71974 5.35251 6.71974 5.01665C6.71979 4.6808 6.87982 4.38141 7.15929 4.19531Z" fill="#474646"/>
<path d="M10.6754 4.19531C11.3429 3.75042 11.7412 2.91225 11.7412 2.11013C11.7412 1.30801 11.3429 0.563632 10.6754 0.118649C10.3499 -0.0976791 9.91453 -0.00974179 9.70026 0.313648C9.48459 0.637085 9.57253 1.07387 9.89526 1.28879C10.1748 1.47488 10.3348 1.77427 10.3348 2.11013C10.3348 2.44599 10.1748 2.83913 9.89526 3.02522C9.22776 3.47016 8.82947 4.21458 8.82947 5.01665C8.82947 5.81873 9.22776 6.56315 9.89526 7.00814C10.2243 7.22629 10.6585 7.13146 10.8704 6.81314C11.0861 6.4897 10.9988 6.05362 10.6754 5.838C10.3959 5.6519 10.2359 5.35251 10.2359 5.01665C10.2359 4.6808 10.3959 4.38141 10.6754 4.19531Z" fill="#474646"/>
<path d="M14.1914 4.19524C14.8589 3.75025 15.2572 2.91208 15.2572 2.11001C15.2572 1.30793 14.8589 0.56351 14.1914 0.118527C13.8659 -0.0978012 13.4312 -0.00986386 13.2163 0.313526C13.0006 0.636963 13.0885 1.07374 13.4113 1.28866C13.6908 1.47476 13.8508 1.77415 13.8508 2.11001C13.8508 2.44587 13.6908 2.83901 13.4113 3.0251C12.7438 3.47008 12.3455 4.2145 12.3455 5.01658C12.3455 5.81866 12.7438 6.56308 13.4113 7.00806C13.7403 7.22622 14.1745 7.13139 14.3864 6.81306C14.6021 6.48962 14.5148 6.05355 14.1914 5.83792C13.9119 5.65183 13.7519 5.35244 13.7519 5.01658C13.7519 4.68072 13.9119 4.38133 14.1914 4.19524Z" fill="#474646"/>
<path d="M22.4121 11.6567C21.7727 10.5662 20.5957 9.8891 19.3411 9.8891H17.9855V9.18588C17.9855 8.7972 17.671 8.48267 17.2823 8.48267H3.21823C2.82955 8.48262 2.51501 8.79715 2.51501 9.18584V13.6461C2.51501 14.7689 2.69628 15.9227 3.05478 16.9831C3.43522 18.1129 4.1405 19.0626 5.03642 19.7808H15.4641C15.9665 19.3781 16.3996 18.8956 16.7584 18.3563C19.334 18.2636 21.3076 17.091 22.4657 15.0169C23.0515 13.9682 23.0316 12.7122 22.4121 11.6567ZM21.2378 14.3314C20.436 15.7663 19.167 16.6488 17.4693 16.8882C17.8073 15.8563 17.9855 14.736 17.9855 13.6461V11.2954H19.341C20.1102 11.2954 20.8051 11.6965 21.1993 12.3688C21.5688 12.9985 21.5826 13.7134 21.2378 14.3314Z" fill="#474646"/>
<path d="M18.6887 21.1871H1.81186C1.4235 21.1871 1.10864 21.502 1.10864 21.8904C1.10864 23.0555 2.05312 24 3.21825 24H17.2823C18.4474 24 19.3919 23.0555 19.3919 21.8904C19.392 21.502 19.0771 21.1871 18.6887 21.1871Z" fill="#474646"/>
</g>
<defs>
<clipPath id="clip0_7_9404">
<rect width="24" height="24" fill="white"/>
</clipPath>
</defs>
</svg>
