<svg width="24" height="24" viewBox="0 0 24 24" fill="none" xmlns="http://www.w3.org/2000/svg">
<path d="M22.7082 5.51719C22.8624 4.93125 22.7082 4.5 21.9666 4.5H19.5124C18.8874 4.5 18.5999 4.87031 18.4457 5.28281C18.4457 5.28281 17.1957 8.70937 15.4291 10.9312C14.8582 11.5734 14.5957 11.7797 14.2832 11.7797C14.1291 11.7797 13.8916 11.5734 13.8916 10.9875V5.51719C13.8916 4.81406 13.7166 4.5 13.1999 4.5H9.34157C8.9499 4.5 8.71657 4.82812 8.71657 5.13281C8.71657 5.79844 9.5999 5.95312 9.69157 7.82812V11.8969C9.69157 12.7875 9.5499 12.9516 9.2374 12.9516C8.40407 12.9516 6.37907 9.51094 5.17907 5.57344C4.9374 4.80938 4.6999 4.5 4.07074 4.5H1.61657C0.916569 4.5 0.774902 4.87031 0.774902 5.28281C0.774902 6.01406 1.60824 9.64688 4.65407 14.4469C6.68324 17.7234 9.54157 19.5 12.1416 19.5C13.7041 19.5 13.8957 19.1063 13.8957 18.4266C13.8957 15.2953 13.7541 15 14.5374 15C14.8999 15 15.5249 15.2063 16.9832 16.7859C18.6499 18.6609 18.9249 19.5 19.8582 19.5H22.3124C23.0124 19.5 23.3666 19.1062 23.1624 18.3281C22.6957 16.6922 19.5416 13.3266 19.3999 13.1016C19.0374 12.5766 19.1416 12.3422 19.3999 11.8734C19.4041 11.8688 22.3999 7.125 22.7082 5.51719Z" fill="#474646"/>
</svg>
