<svg width="17" height="20" viewBox="0 0 17 20" fill="none" xmlns="http://www.w3.org/2000/svg">
<path d="M14.4538 3.79297C12.8638 2.15234 10.7464 1.25 8.49621 1.25C3.85156 1.25 0.0720982 5.14062 0.0720982 9.92188C0.0720982 11.4492 0.459152 12.9414 1.19531 14.2578L0 18.75L4.46629 17.543C5.69576 18.2344 7.0808 18.5977 8.49241 18.5977H8.49621C13.1371 18.5977 17 14.707 17 9.92578C17 7.60938 16.0438 5.43359 14.4538 3.79297ZM8.49621 17.1367C7.23638 17.1367 6.00312 16.7891 4.92924 16.1328L4.675 15.9766L2.02634 16.6914L2.73214 14.0312L2.56518 13.7578C1.86317 12.6094 1.49509 11.2852 1.49509 9.92188C1.49509 5.94922 4.63705 2.71484 8.5 2.71484C10.3708 2.71484 12.1277 3.46484 13.4482 4.82812C14.7688 6.19141 15.5808 8 15.577 9.92578C15.577 13.9023 12.3554 17.1367 8.49621 17.1367ZM12.3364 11.7383C12.1277 11.6289 11.0917 11.1055 10.8982 11.0352C10.7047 10.9609 10.5643 10.9258 10.4239 11.1445C10.2835 11.3633 9.88125 11.8477 9.75603 11.9961C9.6346 12.1406 9.50938 12.1602 9.30067 12.0508C8.06362 11.4141 7.25156 10.9141 6.43571 9.47266C6.21942 9.08984 6.65201 9.11719 7.05424 8.28906C7.12254 8.14453 7.08839 8.01953 7.03527 7.91016C6.98214 7.80078 6.56094 6.73438 6.38638 6.30078C6.21563 5.87891 6.04107 5.9375 5.91205 5.92969C5.79063 5.92188 5.65022 5.92188 5.50982 5.92188C5.36942 5.92188 5.14174 5.97656 4.94821 6.19141C4.75469 6.41016 4.21205 6.93359 4.21205 8C4.21205 9.06641 4.96719 10.0977 5.06964 10.2422C5.17589 10.3867 6.55335 12.5742 8.66696 13.5156C10.0027 14.1094 10.5263 14.1602 11.1942 14.0586C11.6002 13.9961 12.4388 13.5352 12.6134 13.0273C12.7879 12.5195 12.7879 12.0859 12.7348 11.9961C12.6855 11.8984 12.5451 11.8438 12.3364 11.7383Z" fill="white"/>
</svg>
