<svg width="24" height="24" viewBox="0 0 24 24" fill="none" xmlns="http://www.w3.org/2000/svg">
<g clip-path="url(#clip0_7_9513)">
<path d="M23.5971 20.4947C22.429 19.1774 20.8057 18.5587 19.1492 18.7687L18.3902 15.8713C21.2837 14.6967 22.6929 11.3916 21.5105 8.48315L19.3588 3.19064C19.2252 2.8621 18.868 2.68449 18.5253 2.77627L12.0105 4.52189L5.49566 2.77627C5.15305 2.68449 4.79582 2.86215 4.66223 3.19064L2.51043 8.4832C1.33354 11.3779 2.72343 14.6912 5.63071 15.8714L4.8719 18.7684C3.20545 18.5552 1.5742 19.174 0.403078 20.4947C0.181313 20.7447 -0.0944993 20.9849 0.0361879 21.4143C0.107391 21.6484 0.295172 21.8286 0.53189 21.8902L8.55542 23.9773C8.7898 24.0383 9.03978 23.9745 9.21645 23.8069C9.53811 23.5018 9.42289 23.1627 9.35487 22.8305C9.02047 21.1963 7.90564 19.8093 6.23141 19.1287L6.98919 16.2356C8.89883 16.5036 10.7649 15.7737 12.0101 14.3719C13.1114 15.6189 14.6709 16.2878 16.2595 16.2878C16.5167 16.2878 16.7747 16.2698 17.0315 16.2345L17.7895 19.1288C16.1156 19.8093 15.0005 21.1961 14.6661 22.8305C14.6039 23.1347 14.4756 23.4953 14.8046 23.8071C14.9808 23.9741 15.2307 24.0385 15.4659 23.9772L23.4686 21.89C23.7053 21.8283 23.8928 21.6481 23.964 21.4141C24.0938 20.987 23.822 20.7484 23.5971 20.4947ZM5.73126 4.29539L9.89192 5.41022C9.85676 5.51194 9.8442 5.62289 9.85981 5.73591L10.4033 9.66519C9.48748 10.2274 8.44381 10.115 7.57953 9.3268C6.54003 8.37885 5.26044 8.06957 4.06377 8.39685L5.73126 4.29539ZM7.71214 22.3048L2.09132 20.8427C2.99085 20.1766 4.08791 19.9652 5.20307 20.264C6.35914 20.5737 7.2523 21.3123 7.71214 22.3048ZM6.6591 14.7362C4.66241 14.2012 3.3292 12.3046 3.51721 10.2325C4.49709 9.44877 5.67444 9.49279 6.63182 10.3659C7.75766 11.3927 9.22831 11.717 10.6069 11.1371C10.6609 11.5271 10.7389 12.2562 11.1893 13.1558C10.1583 14.5431 8.35105 15.1896 6.6591 14.7362ZM11.6929 8.72432L11.338 6.15815L18.2897 4.29544L20.0973 8.74148C19.8141 8.89912 19.5441 9.09473 19.2896 9.32676C18.2806 10.2469 17.027 10.2469 16.018 9.32676C14.7393 8.1606 13.0971 7.96045 11.6929 8.72432ZM17.3619 14.7362C14.8858 15.3997 12.3866 13.7399 12.0357 11.2026L11.907 10.2719C12.8963 9.44727 14.097 9.47835 15.0703 10.366C16.6156 11.7753 18.692 11.7753 20.2373 10.366C20.3214 10.2892 20.4078 10.2192 20.4958 10.1548C20.7247 12.2501 19.3899 14.1928 17.3619 14.7362ZM16.3092 22.3038C16.7693 21.3118 17.6621 20.5736 18.8179 20.2639C19.9004 19.9739 20.9947 20.1648 21.9098 20.8432L16.3092 22.3038Z" fill="#474646"/>
<path d="M11.9929 0C11.6045 0 11.2897 0.314859 11.2897 0.703217V2.10965C11.2897 2.49801 11.6045 2.81287 11.9929 2.81287C12.3812 2.81287 12.6961 2.49801 12.6961 2.10965V0.703217C12.6961 0.314859 12.3812 0 11.9929 0Z" fill="#474646"/>
<path d="M9.6773 1.61237L8.27091 0.20598C7.99632 -0.06866 7.55105 -0.06866 7.27641 0.20598C7.00177 0.48062 7.00177 0.925838 7.27641 1.20048L8.68285 2.60691C8.95744 2.88155 9.40275 2.88155 9.67735 2.60691C9.95194 2.33223 9.95194 1.88701 9.6773 1.61237Z" fill="#474646"/>
<path d="M16.7095 0.20598C16.4349 -0.06866 15.9896 -0.06866 15.715 0.20598L14.3085 1.61241C14.0339 1.88705 14.0339 2.33227 14.3085 2.60691C14.5831 2.88155 15.0284 2.88155 15.303 2.60691L16.7095 1.20048C16.9841 0.925791 16.9841 0.480573 16.7095 0.20598Z" fill="#474646"/>
</g>
<defs>
<clipPath id="clip0_7_9513">
<rect width="24" height="24" fill="white"/>
</clipPath>
</defs>
</svg>
